<svg width="285" height="61" viewBox="0 0 285 61" fill="none" xmlns="http://www.w3.org/2000/svg">
<g clip-path="url(#clip0_1164_346)">
<path d="M0.25 11.1608V39.7105C0.25 36.6284 2.72188 34.1301 5.7715 34.1301H38.3492C47.498 34.1301 54.9137 26.6354 54.9137 17.3891V16.8798C54.9137 7.66542 47.5482 0.184059 38.4336 0.138734L11.3484 9.14429e-05C5.22806 -0.031903 0.25 4.97522 0.25 11.1608Z" fill="#3F53D8"/>
<path d="M6.06936 37.6041H17.6637C20.7133 37.6041 23.1852 40.1023 23.1852 43.1844V52.2388C23.1852 55.321 20.7133 57.8192 17.6637 57.8192H4.38098C2.51586 57.8192 0.909269 59.1496 0.547852 61V43.1844C0.547852 40.1023 3.01973 37.6041 6.06936 37.6041Z" fill="#FE7F51"/>
<path d="M46.0469 37.6041H31.7432C28.6936 37.6041 26.2217 40.1023 26.2217 43.1844V52.2388C26.2217 55.321 28.6936 57.8192 31.7432 57.8192H51.3758C53.2409 57.8192 54.8449 59.1523 55.2089 61V46.8638C55.2089 41.75 51.1067 37.6041 46.0469 37.6041Z" fill="#3F53D8"/>
<mask id="mask0_1164_346" style="mask-type:luminance" maskUnits="userSpaceOnUse" x="83" y="12" width="202" height="35">
<path d="M284.25 12.9897H83.7295V46.9118H284.25V12.9897Z" fill="white"/>
</mask>
<g mask="url(#mask0_1164_346)">
<path d="M103.491 46.5869L97.313 37.6631C97.0624 37.6631 96.6666 37.7004 96.1628 37.7004H89.3354V46.5895H83.7295V16.1095H96.1601C98.7824 16.1095 101.046 16.5441 102.987 17.416C104.929 18.2878 106.401 19.5196 107.443 21.154C108.485 22.7857 108.989 24.708 108.989 26.9583C108.989 29.2086 108.451 31.2402 107.335 32.8719C106.222 34.541 104.642 35.7754 102.557 36.5726L109.493 46.5869H103.457H103.494H103.491ZM101.479 22.4604C100.22 21.4073 98.3524 20.9007 95.9095 20.9007H89.3697V33.0532H95.9095C98.3524 33.0532 100.22 32.5093 101.479 31.4562C102.737 30.403 103.383 28.8806 103.383 26.9583C103.383 25.036 102.737 23.5109 101.479 22.4604ZM135.217 36.7193H117.143C117.468 38.4256 118.294 39.8041 119.623 40.7825C120.953 41.761 122.604 42.2703 124.617 42.2703C127.131 42.2703 129.215 41.4358 130.869 39.7321L133.742 43.0701C132.7 44.3046 131.408 45.2458 129.825 45.899C128.244 46.5522 126.448 46.8428 124.472 46.8428C121.958 46.8428 119.729 46.3362 117.79 45.3204C115.848 44.3046 114.376 42.8888 113.334 41.0758C112.292 39.2628 111.754 37.1938 111.754 34.9089C111.754 32.624 112.258 30.5923 113.3 28.7766C114.305 26.9636 115.743 25.5479 117.539 24.5321C119.336 23.5162 121.383 23.0097 123.646 23.0097C125.91 23.0097 127.886 23.5162 129.645 24.4974C131.405 25.5132 132.806 26.8916 133.777 28.7047C134.782 30.5177 135.249 32.624 135.249 34.9809C135.249 35.3435 135.249 35.8874 135.177 36.5779L135.214 36.7219L135.217 36.7193ZM119.301 28.9926C118.117 30.0084 117.397 31.3869 117.109 33.0932H130.189C129.972 31.4242 129.255 30.0458 128.068 28.9926C126.883 27.9395 125.409 27.4329 123.686 27.4329C121.963 27.4329 120.489 27.9395 119.301 28.9926ZM175.35 25.6545C177.038 27.3582 177.901 29.8991 177.901 33.3092V46.6242H172.511V33.9997C172.511 31.9681 172.081 30.4457 171.182 29.3925C170.282 28.3767 169.027 27.8328 167.338 27.8328C165.542 27.8328 164.07 28.4487 162.991 29.6458C161.912 30.843 161.337 32.584 161.337 34.7969V46.5869H155.947V33.9624C155.947 31.9308 155.517 30.4057 154.617 29.3552C153.718 28.3394 152.462 27.7955 150.774 27.7955C148.94 27.7955 147.468 28.3767 146.389 29.5738C145.31 30.771 144.772 32.4773 144.772 34.7623V46.5522H139.382V23.3696H144.521V26.3451C145.384 25.2919 146.46 24.4947 147.756 23.9508C149.048 23.4069 150.486 23.1163 152.066 23.1163C153.792 23.1163 155.335 23.4416 156.665 24.0948C157.994 24.748 159.07 25.7265 159.825 26.9983C160.759 25.7638 161.98 24.82 163.489 24.1321C164.998 23.4442 166.65 23.1163 168.446 23.1163C171.356 23.1163 173.656 23.9508 175.345 25.6572L175.35 25.6545ZM205.495 36.7193H187.422C187.746 38.4256 188.572 39.8041 189.902 40.7825C191.231 41.761 192.883 42.2703 194.896 42.2703C197.41 42.2703 199.494 41.4358 201.148 39.7321L204.023 43.0701C202.981 44.3046 201.689 45.2458 200.108 45.899C198.528 46.5522 196.732 46.8428 194.756 46.8428C192.242 46.8428 190.012 46.3362 188.074 45.3204C186.135 44.3046 184.66 42.8888 183.618 41.0758C182.576 39.2628 182.038 37.1938 182.038 34.9089C182.038 32.624 182.541 30.5923 183.583 28.7766C184.589 26.9636 186.026 25.5479 187.823 24.5321C189.619 23.5162 191.667 23.0097 193.93 23.0097C196.194 23.0097 198.169 23.5162 199.929 24.4974C201.689 25.5132 203.089 26.8916 204.06 28.7047C205.065 30.5177 205.532 32.624 205.532 34.9809C205.532 35.3435 205.532 35.8874 205.461 36.5779L205.498 36.7219L205.495 36.7193ZM189.58 28.9926C188.395 30.0084 187.675 31.3869 187.388 33.0932H200.467C200.251 31.4242 199.533 30.0458 198.346 28.9926C197.162 27.9395 195.687 27.4329 193.964 27.4329C192.242 27.4329 190.767 27.9395 189.58 28.9926ZM232.227 14.2992V46.5895H227.054V43.5794C226.154 44.6672 225.078 45.5017 223.748 46.0456C222.456 46.5895 220.981 46.8801 219.401 46.8801C217.174 46.8801 215.198 46.3736 213.436 45.3924C211.676 44.4139 210.276 42.9982 209.268 41.1851C208.263 39.3721 207.759 37.3032 207.759 34.9462C207.759 32.5893 208.263 30.5203 209.268 28.7073C210.273 26.8943 211.674 25.5159 213.436 24.5347C215.196 23.5562 217.208 23.047 219.401 23.047C220.91 23.047 222.311 23.3003 223.569 23.8442C224.827 24.3881 225.904 25.1506 226.803 26.2038V14.3045H232.23L232.227 14.2992ZM223.569 41.3638C224.611 40.7825 225.437 39.9134 226.012 38.8256C226.624 37.7377 226.909 36.4313 226.909 34.9809C226.909 33.5305 226.621 32.2587 226.012 31.1362C225.4 30.0484 224.574 29.1766 223.569 28.5953C222.564 28.0141 221.377 27.6888 220.084 27.6888C218.791 27.6888 217.641 27.9795 216.599 28.5953C215.557 29.1766 214.731 30.0458 214.156 31.1362C213.544 32.224 213.257 33.5305 213.257 34.9809C213.257 36.4313 213.544 37.7031 214.156 38.8256C214.768 39.9134 215.594 40.7852 216.599 41.3638C217.641 41.945 218.791 42.2703 220.084 42.2703C221.377 42.2703 222.527 41.9797 223.569 41.3638ZM238.479 18.5811C237.833 17.9652 237.474 17.1653 237.474 16.2588C237.474 15.3523 237.799 14.5525 238.479 13.9366C239.126 13.3207 239.951 12.9927 240.922 12.9927C241.893 12.9927 242.719 13.2834 243.365 13.8992C244.011 14.4805 244.37 15.2403 244.37 16.1495C244.37 17.0587 244.046 17.9279 243.399 18.5811C242.753 19.2343 241.927 19.5596 240.92 19.5596C239.912 19.5596 239.123 19.2343 238.477 18.6158V18.5784L238.479 18.5811ZM238.229 23.3349H243.618V46.5895H238.229V23.3349Z" fill="#3F53D8"/>
<path d="M272.107 23.3666V46.6212H266.968V43.6111C266.071 44.6989 264.992 45.5334 263.663 46.0773C262.37 46.6212 260.895 46.9118 259.315 46.9118C257.089 46.9118 255.076 46.4052 253.316 45.4241C251.557 44.4456 250.156 43.0298 249.185 41.2515C248.214 39.4731 247.713 37.3695 247.713 34.9752C247.713 32.581 248.217 30.512 249.185 28.7363C250.19 26.958 251.557 25.5795 253.316 24.5637C255.076 23.5479 257.089 23.076 259.315 23.076C260.824 23.076 262.191 23.3293 263.446 23.8758C264.705 24.3824 265.781 25.1823 266.718 26.1981V23.3693H272.107V23.3666ZM264.85 40.273C266.143 38.9319 266.789 37.1882 266.789 35.0126C266.789 32.8369 266.143 31.0933 264.85 29.7522C263.555 28.4111 261.903 27.7578 259.927 27.7578C257.951 27.7578 256.297 28.4111 255.041 29.7522C253.749 31.0959 253.137 32.8369 253.137 35.0126C253.137 37.1882 253.783 38.9319 255.041 40.273C256.3 41.6167 257.951 42.2673 259.927 42.2673C261.903 42.2673 263.557 41.6141 264.85 40.273Z" fill="#FE7F51"/>
</g>
<path d="M278.228 24.4917C278.228 23.8545 278.737 23.3373 279.367 23.3373H282.47C283.1 23.3373 283.612 23.8545 283.612 24.4917V47.733L283.567 47.581C283.398 46.9865 282.863 46.5785 282.251 46.5785H279.367C278.737 46.5785 278.228 46.0613 278.228 45.4267V24.4917ZM283.612 14.5815C283.612 13.9442 283.1 13.427 282.47 13.427H279.367C278.737 13.427 278.228 13.9442 278.228 14.5788V20.2338L278.27 20.0818C278.439 19.4899 278.977 19.0793 279.586 19.0793H282.47C283.1 19.0793 283.612 18.5621 283.612 17.9249V14.5788V14.5815Z" fill="#FE7F51"/>
</g>
<defs>
<clipPath id="clip0_1164_346">
<rect width="284" height="61" fill="white" transform="translate(0.25)"/>
</clipPath>
</defs>
</svg>
