<svg width="32" height="32" viewBox="0 0 32 32" fill="none" xmlns="http://www.w3.org/2000/svg">
<path d="M16 2C13.2311 2 10.5243 2.82109 8.22202 4.35943C5.91973 5.89777 4.12532 8.08427 3.06569 10.6424C2.00607 13.2006 1.72882 16.0155 2.26901 18.7313C2.80921 21.447 4.14258 23.9416 6.10051 25.8995C8.05845 27.8574 10.553 29.1908 13.2687 29.731C15.9845 30.2712 18.7994 29.9939 21.3576 28.9343C23.9157 27.8747 26.1022 26.0803 27.6406 23.778C29.1789 21.4757 30 18.7689 30 16C29.9958 12.2883 28.5194 8.72977 25.8948 6.10518C23.2702 3.48059 19.7117 2.00423 16 2ZM4.00001 16C4.00104 14.3155 4.35791 12.6502 5.04723 11.1132C5.73655 9.57619 6.74277 8.20213 8.00001 7.081V9C8.00001 9.53043 8.21072 10.0391 8.58579 10.4142C8.96087 10.7893 9.46957 11 10 11H13.382C13.7537 11.0002 14.118 10.8968 14.4342 10.7014C14.7504 10.5061 15.0059 10.2265 15.172 9.894L15.617 9H18V13H13.235C12.9251 12.9999 12.6194 13.0718 12.342 13.21L9.10501 14.83C8.77318 14.996 8.49409 15.2511 8.29895 15.5667C8.1038 15.8823 8.0003 16.246 8.00001 16.617V20.322C7.99998 20.7217 8.11972 21.1122 8.34377 21.4432C8.56782 21.7742 8.88591 22.0305 9.25701 22.179L13.106 23.719L13.784 27.785C11.0367 27.266 8.55633 25.8051 6.77039 23.6539C4.98444 21.5027 4.00471 18.7959 4.00001 16ZM15.846 27.992L14.894 22.28L10 20.323V16.618L13.236 15H20V7H14.382L13.382 9H10V5.623C11.5224 4.73677 13.2219 4.19785 14.9768 4.04478C16.7318 3.89171 18.4988 4.12827 20.1517 4.73755C21.8046 5.34682 23.3025 6.31376 24.5382 7.56922C25.7739 8.82469 26.717 10.3377 27.3 12H22V16L22.922 19.813L21 22.698V26.895C19.4332 27.6216 17.7271 27.9986 16 28C15.948 28 15.898 27.993 15.846 27.992ZM23 25.727V23.303L24.586 20.923C24.7406 20.6911 24.8451 20.4294 24.8928 20.1547C24.9405 19.8801 24.9304 19.5985 24.863 19.328L24 15.877V14H27.82C28.211 16.2106 27.9654 18.4867 27.112 20.5631C26.2586 22.6394 24.8325 24.4303 23 25.727Z" fill="black"/>
</svg>
