<svg width="64" height="64" viewBox="0 0 64 64" fill="none" xmlns="http://www.w3.org/2000/svg">
<rect x="0.5" y="0.5" width="63" height="63" rx="7.5" fill="white"/>
<path d="M37 39C38.1046 39 39 38.1046 39 37C39 35.8954 38.1046 35 37 35C35.8954 35 35 35.8954 35 37C35 38.1046 35.8954 39 37 39Z" fill="#14706C"/>
<path d="M23 25C24.1046 25 25 24.1046 25 23C25 21.8954 24.1046 21 23 21C21.8954 21 21 21.8954 21 23C21 24.1046 21.8954 25 23 25Z" fill="#14706C"/>
<path d="M43 47C42.2089 47 41.4355 46.7654 40.7777 46.3259C40.1199 45.8864 39.6072 45.2616 39.3045 44.5307C39.0017 43.7998 38.9225 42.9956 39.0769 42.2196C39.2312 41.4437 39.6122 40.731 40.1716 40.1716C40.731 39.6122 41.4437 39.2312 42.2196 39.0769C42.9956 38.9225 43.7998 39.0017 44.5307 39.3045C45.2616 39.6072 45.8864 40.1199 46.3259 40.7777C46.7654 41.4355 47 42.2089 47 43C46.9968 44.0599 46.5744 45.0755 45.8249 45.8249C45.0755 46.5744 44.0599 46.9968 43 47ZM43 41C42.6044 41 42.2178 41.1173 41.8889 41.3371C41.56 41.5568 41.3036 41.8692 41.1522 42.2346C41.0009 42.6001 40.9613 43.0022 41.0384 43.3902C41.1156 43.7781 41.3061 44.1345 41.5858 44.4142C41.8655 44.6939 42.2219 44.8844 42.6098 44.9616C42.9978 45.0387 43.3999 44.9991 43.7654 44.8478C44.1308 44.6964 44.4432 44.44 44.6629 44.1111C44.8827 43.7822 45 43.3956 45 43C44.9984 42.4701 44.7872 41.9623 44.4125 41.5875C44.0377 41.2128 43.5299 41.0016 43 41Z" fill="#14706C"/>
<path d="M46 32.0004C45.9892 28.2906 44.5107 24.736 41.8875 22.1128C39.2644 19.4896 35.7097 18.0112 32 18.0004C29.6113 17.9663 27.259 18.5889 25.2 19.8004L26.3 21.5004C27.0817 21.1246 27.8828 20.7908 28.7 20.5004C27.0469 23.7623 26.1255 27.3456 26 31.0004H20C20.112 29.3492 20.5903 27.7437 21.4 26.3004L19.9 25.0004C18.6557 27.1233 17.9999 29.5396 18 32.0004C17.9997 33.8389 18.3617 35.6596 19.0652 37.3582C19.7686 39.0569 20.7998 40.6004 22.0999 41.9004C23.4 43.2005 24.9434 44.2317 26.6421 44.9352C28.3408 45.6387 30.1614 46.0006 32 46.0004C33.7827 46.0171 35.5507 45.6771 37.2 45.0004L36.6 43.1004C34.9605 43.8014 33.1798 44.1096 31.4 44.0004C29.2675 40.7204 28.0902 36.9116 28 33.0004H45.9C45.9827 32.6738 46.0164 32.3368 46 32.0004ZM28.8 43.6004C26.8115 43.0043 24.9943 41.9414 23.5 40.5004C21.5159 38.4701 20.2815 35.8252 20 33.0004H26C26.1376 36.6973 27.0939 40.3177 28.8 43.6004ZM28 31.0004C28.0795 27.1019 29.2204 23.2988 31.3 20.0004H32.7C34.7796 23.2988 35.9205 27.1019 36 31.0004H28ZM38 31.0004C37.9239 27.2945 36.964 23.6604 35.2 20.4004C37.5529 21.0785 39.6444 22.4551 41.1979 24.3478C42.7514 26.2406 43.6937 28.5604 43.9 31.0004H38Z" fill="#14706C"/>
<rect x="0.5" y="0.5" width="63" height="63" rx="7.5" stroke="#14706C"/>
</svg>
