<svg width="64" height="64" viewBox="0 0 64 64" fill="none" xmlns="http://www.w3.org/2000/svg">
<rect x="0.5" y="0.5" width="63" height="63" rx="7.5" fill="white"/>
<path d="M36.4127 30.5842L28.4157 22.5872C28.2298 22.4012 28.0091 22.2537 27.7661 22.153C27.5232 22.0523 27.2627 22.0005 26.9997 22.0005C26.7367 22.0005 26.4763 22.0523 26.2334 22.153C25.9904 22.2537 25.7697 22.4012 25.5837 22.5872L17.5867 30.5842C17.4007 30.7701 17.2532 30.9909 17.1525 31.2339C17.0518 31.4768 17 31.7372 17 32.0002C17 32.2632 17.0518 32.5236 17.1525 32.7666C17.2532 33.0096 17.4007 33.2303 17.5867 33.4162L20.8777 36.7082L18.9997 38.5852L20.4137 40.0002L22.2927 38.1222L25.5837 41.4132C25.7697 41.5992 25.9904 41.7468 26.2334 41.8475C26.4763 41.9482 26.7367 42 26.9997 42C27.2627 42 27.5232 41.9482 27.7661 41.8475C28.0091 41.7468 28.2298 41.5992 28.4157 41.4132L30.6717 39.1572L29.2557 37.7422L26.9977 39.9992L19.0007 32.0022L26.9977 24.0012L34.9987 32.0022L33.4997 33.5002L34.9147 34.9152L36.4127 33.4162C36.5988 33.2303 36.7463 33.0096 36.847 32.7666C36.9477 32.5236 36.9995 32.2632 36.9995 32.0002C36.9995 31.7372 36.9477 31.4768 36.847 31.2339C36.7463 30.9909 36.5988 30.7701 36.4127 30.5842Z" fill="#14706C"/>
<path d="M46.4127 30.5842L43.1217 27.2922L44.9997 25.4152L43.5857 24.0002L41.7077 25.8782L38.4157 22.5872C38.2298 22.4012 38.0091 22.2537 37.7661 22.153C37.5232 22.0523 37.2627 22.0005 36.9997 22.0005C36.7367 22.0005 36.4763 22.0523 36.2334 22.153C35.9904 22.2537 35.7697 22.4012 35.5837 22.5872L33.3277 24.8432L34.7427 26.2572L36.9977 24.0012L44.9987 32.0022L36.9977 39.9992L29.0007 32.0022L30.5007 30.5012L29.0847 29.0852L27.5867 30.5842C27.4007 30.7701 27.2532 30.9909 27.1525 31.2339C27.0518 31.4768 27 31.7372 27 32.0002C27 32.2632 27.0518 32.5236 27.1525 32.7666C27.2532 33.0096 27.4007 33.2303 27.5867 33.4162L35.5837 41.4132C35.7697 41.5992 35.9904 41.7468 36.2334 41.8475C36.4763 41.9482 36.7367 42 36.9997 42C37.2627 42 37.5232 41.9482 37.7661 41.8475C38.0091 41.7468 38.2298 41.5992 38.4157 41.4132L46.4127 33.4162C46.5988 33.2303 46.7463 33.0096 46.847 32.7666C46.9477 32.5236 46.9995 32.2632 46.9995 32.0002C46.9995 31.7372 46.9477 31.4768 46.847 31.2339C46.7463 30.9909 46.5988 30.7701 46.4127 30.5842Z" fill="#14706C"/>
<rect x="0.5" y="0.5" width="63" height="63" rx="7.5" stroke="#14706C"/>
</svg>
