<?xml version="1.0" encoding="UTF-8"?>
<!DOCTYPE svg PUBLIC "-//W3C//DTD SVG 1.1//EN" "http://www.w3.org/Graphics/SVG/1.1/DTD/svg11.dtd">
<!-- Creator: CorelDRAW 2021.5 -->
<svg xmlns="http://www.w3.org/2000/svg" xml:space="preserve" width="91.44mm" height="91.44mm" version="1.1" style="shape-rendering:geometricPrecision; text-rendering:geometricPrecision; image-rendering:optimizeQuality; fill-rule:evenodd; clip-rule:evenodd"
viewBox="0 0 9144 9144"
 xmlns:xlink="http://www.w3.org/1999/xlink"
 xmlns:xodm="http://www.corel.com/coreldraw/odm/2003">
 <defs>
  <style type="text/css">
   <![CDATA[
    .fil0 {fill:#198A84;fill-rule:nonzero}
   ]]>
  </style>
 </defs>
 <g id="Layer_x0020_1">
  <metadata id="CorelCorpID_0Corel-Layer"/>
  <path class="fil0" d="M7916.34 4715.93c0,-1851.71 -1501.1,-3352.81 -3352.81,-3352.81 -1851.7,0 -3352.8,1501.1 -3352.8,3352.81 0,367.93 59.45,721.94 168.96,1053.15 701.68,-972.7 1834.53,-1604.48 3112.91,-1604.48 1336.9,0 2514.74,690.86 3206.61,1740.12 140.17,-369.51 217.13,-770.13 217.13,-1188.79zm-6252.78 1683.48c109.64,188.46 237.13,365.21 380.14,528.01 132.03,-289.07 313.86,-555.28 540,-784.93 506.28,-514.12 1192.93,-802.97 1908.9,-802.97 715.97,0 1402.62,288.85 1908.9,802.97 253.35,257.28 451.13,560.45 585.53,890.25 149.73,-156.55 284.46,-327.6 401.83,-510.83 -151.41,-290.09 -345.53,-558.4 -578.33,-794.81 -614.74,-624.31 -1448.53,-975.03 -2317.93,-975.03 -869.41,0 -1703.19,350.72 -2317.93,975.03 -199.67,202.76 -370.88,429 -511.11,672.31zm832.01 955.75c157.59,123.65 326.65,233.31 505.12,327.53 68.9,-266.11 206.23,-511.5 401.11,-709.41 289.3,-293.78 681.67,-458.83 1090.8,-458.83 409.12,0 801.5,165.05 1090.8,458.83 210.3,213.58 353.58,482.48 416.17,773.02 182.38,-86.56 355.67,-189.13 518.14,-305.83 -101.23,-330.05 -280.14,-633.64 -525.27,-882.59 -397.78,-403.94 -937.29,-630.9 -1499.84,-630.9 -562.55,0 -1102.06,226.96 -1499.84,630.9 -223.87,227.35 -392.51,500.26 -497.19,797.28zm1047.64 555.27c321.71,102.75 664.52,158.3 1020.32,158.3 306.22,0 602.75,-41.28 884.6,-118.19 -28,-211.51 -123.52,-409.26 -273.79,-561.86 -180.81,-183.62 -426.04,-286.76 -681.74,-286.76 -255.71,0 -500.94,103.14 -681.76,286.76 -140.71,142.91 -233.42,325.42 -267.63,521.75z"/>
 </g>
</svg>
