<svg width="48" height="48" viewBox="0 0 48 48" fill="none" xmlns="http://www.w3.org/2000/svg">
<rect width="48" height="48" rx="24" fill="#DFEBEA"/>
<path d="M28 26H22C21.2044 26 20.4413 26.3161 19.8787 26.8787C19.3161 27.4413 19 28.2044 19 29V31H21V29C21 28.7348 21.1054 28.4804 21.2929 28.2929C21.4804 28.1054 21.7348 28 22 28H28C28.2652 28 28.5196 28.1054 28.7071 28.2929C28.8946 28.4804 29 28.7348 29 29V31H31V29C31 28.2044 30.6839 27.4413 30.1213 26.8787C29.5587 26.3161 28.7956 26 28 26ZM25 25C26.0609 25 27.0783 24.5786 27.8284 23.8284C28.5786 23.0783 29 22.0609 29 21C29 19.9391 28.5786 18.9217 27.8284 18.1716C27.0783 17.4214 26.0609 17 25 17C23.9391 17 22.9217 17.4214 22.1716 18.1716C21.4214 18.9217 21 19.9391 21 21C21 22.0609 21.4214 23.0783 22.1716 23.8284C22.9217 24.5786 23.9391 25 25 25ZM25 19C25.5304 19 26.0391 19.2107 26.4142 19.5858C26.7893 19.9609 27 20.4696 27 21C27 21.5304 26.7893 22.0391 26.4142 22.4142C26.0391 22.7893 25.5304 23 25 23C24.4696 23 23.9609 22.7893 23.5858 22.4142C23.2107 22.0391 23 21.5304 23 21C23 20.4696 23.2107 19.9609 23.5858 19.5858C23.9609 19.2107 24.4696 19 25 19Z" fill="black"/>
<path d="M25 38C17.28 38 11 31.72 11 24H13C13 30.617 18.383 36 25 36C30.226 36 34.816 32.662 36.421 27.693L38.325 28.307C37.4195 31.1273 35.6404 33.5865 33.245 35.329C30.8496 37.0714 27.9621 38.0069 25 38ZM39 24H37C37 17.383 31.617 12 25 12V10C32.72 10 39 16.28 39 24ZM14 22L11.861 20.987C11.0067 20.5797 10.2848 19.9393 9.77859 19.1396C9.2724 18.3399 9.0025 17.4134 9 16.467V10H19V16.468C18.9976 17.4145 18.7278 18.341 18.2216 19.1407C17.7154 19.9405 16.9934 20.5808 16.139 20.988L14 22ZM11 12V16.468C11.0015 17.0357 11.1636 17.5913 11.4674 18.0708C11.7712 18.5503 12.2044 18.9342 12.717 19.178L14 19.787L15.283 19.18C15.7958 18.9358 16.2291 18.5516 16.5329 18.0718C16.8367 17.5919 16.9986 17.0359 17 16.468V12H11Z" fill="black"/>
</svg>
