<svg width="48" height="48" viewBox="0 0 48 48" fill="none" xmlns="http://www.w3.org/2000/svg">
<rect width="48" height="48" rx="24" fill="#F6EBE7"/>
<path d="M11.6 30.5C10.6 28.5 10 26.3 10 24C10 16.3 16.3 10 24 10V12C17.4 12 12 17.4 12 24C12 26 12.5 27.8 13.4 29.5L11.6 30.5ZM36 24C36 30.6 30.6 36 24 36C21.1 36 18.4 35 16.3 33.2L22 27.5L20.6 26L14.1 32.5C13.7 32.9 13.7 33.5 14.1 33.9C16.7 36.5 20.3 38 24 38C31.7 38 38 31.7 38 24H36Z" fill="#252525"/>
<path d="M26.0003 33C25.9003 33 25.7003 33 25.6003 32.9C25.3003 32.8 25.0003 32.5 25.0003 32.1L24.3003 27.1L26.3003 26.8L26.7003 30.1L28.9003 28.4V23C28.9003 22.7 29.0003 22.5 29.2003 22.3L32.4003 19.1C33.3003 18.2 33.9003 16.9 33.9003 15.6V14H32.4003C31.1003 14 29.8003 14.5 28.9003 15.5L25.7003 18.7C25.5003 18.9 25.3003 19 25.0003 19H19.5003L17.8003 21.2L21.1003 21.6L20.8003 23.6L15.8003 22.9C15.4003 22.9 15.1003 22.6 15.0003 22.3C14.9003 22 14.9003 21.6 15.1003 21.3L18.1003 17.3C18.4003 17.1 18.7003 17 19.0003 17H24.6003L27.6003 14C28.9003 12.7 30.7003 12 32.5003 12H34.0003C35.1003 12 36.0003 12.9 36.0003 14V15.5C36.0003 17.4 35.3003 19.1 34.0003 20.4L31.0003 23.4V29C31.0003 29.3 30.9003 29.6 30.6003 29.8L26.6003 32.8C26.4003 32.9 26.2003 33 26.0003 33Z" fill="#252525"/>
</svg>
