<svg width="48" height="48" viewBox="0 0 48 48" fill="none" xmlns="http://www.w3.org/2000/svg">
<rect width="48" height="48" rx="24" fill="#EBE7F1"/>
<path d="M27 29H21C20.2044 29 19.4413 29.3161 18.8787 29.8787C18.3161 30.4413 18 31.2044 18 32V34H20V32C20 31.7348 20.1054 31.4804 20.2929 31.2929C20.4804 31.1054 20.7348 31 21 31H27C27.2652 31 27.5196 31.1054 27.7071 31.2929C27.8946 31.4804 28 31.7348 28 32V34H30V32C30 31.2044 29.6839 30.4413 29.1213 29.8787C28.5587 29.3161 27.7956 29 27 29ZM24 28C24.7911 28 25.5645 27.7654 26.2223 27.3259C26.8801 26.8864 27.3928 26.2616 27.6955 25.5307C27.9983 24.7998 28.0775 23.9956 27.9231 23.2196C27.7688 22.4437 27.3878 21.731 26.8284 21.1716C26.269 20.6122 25.5563 20.2312 24.7804 20.0769C24.0044 19.9225 23.2002 20.0017 22.4693 20.3045C21.7384 20.6072 21.1136 21.1199 20.6741 21.7777C20.2346 22.4355 20 23.2089 20 24C20 25.0609 20.4214 26.0783 21.1716 26.8284C21.9217 27.5786 22.9391 28 24 28ZM24 22C24.3956 22 24.7822 22.1173 25.1111 22.3371C25.44 22.5568 25.6964 22.8692 25.8478 23.2346C25.9991 23.6001 26.0387 24.0022 25.9616 24.3902C25.8844 24.7781 25.6939 25.1345 25.4142 25.4142C25.1345 25.6939 24.7781 25.8844 24.3902 25.9616C24.0022 26.0387 23.6001 25.9991 23.2346 25.8478C22.8692 25.6964 22.5568 25.44 22.3371 25.1111C22.1173 24.7822 22 24.3956 22 24C22 23.4696 22.2107 22.9609 22.5858 22.5858C22.9609 22.2107 23.4696 22 24 22Z" fill="#252525"/>
<path d="M33 13H30V12C30 11.4696 29.7893 10.9609 29.4142 10.5858C29.0391 10.2107 28.5304 10 28 10H20C19.4696 10 18.9609 10.2107 18.5858 10.5858C18.2107 10.9609 18 11.4696 18 12V13H15C14.4696 13 13.9609 13.2107 13.5858 13.5858C13.2107 13.9609 13 14.4696 13 15V36C13 36.5304 13.2107 37.0391 13.5858 37.4142C13.9609 37.7893 14.4696 38 15 38H33C33.5304 38 34.0391 37.7893 34.4142 37.4142C34.7893 37.0391 35 36.5304 35 36V15C35 14.4696 34.7893 13.9609 34.4142 13.5858C34.0391 13.2107 33.5304 13 33 13ZM20 12H28V16H20V12ZM33 36H15V15H18V18H30V15H33V36Z" fill="#252525"/>
</svg>
