<svg width="29" height="29" viewBox="0 0 29 29" fill="none" xmlns="http://www.w3.org/2000/svg">
<path d="M28 14.9999C27.9892 11.2902 26.5107 7.73548 23.8875 5.11232C21.2644 2.48915 17.7097 1.01068 14 0.999862C11.6113 0.965789 9.25905 1.58843 7.2 2.79986L8.3 4.49986C9.08168 4.12416 9.88281 3.79035 10.7 3.49986C9.04689 6.76178 8.12546 10.3451 8 13.9999H2C2.11205 12.3487 2.59028 10.7432 3.4 9.29986L1.9 7.99986C0.655719 10.1228 -0.000131918 12.5391 1.42911e-07 14.9999C-0.000262568 16.8384 0.361679 18.6591 1.06515 20.3577C1.76862 22.0564 2.79985 23.5999 4.09992 24.8999C5.39999 26.2 6.94344 27.2312 8.64212 27.9347C10.3408 28.6382 12.1614 29.0001 14 28.9999C15.7827 29.0167 17.5507 28.6766 19.2 27.9999L18.6 26.0999C16.9605 26.801 15.1798 27.1091 13.4 26.9999C11.2675 23.7199 10.0902 19.9111 10 15.9999H27.9C27.9827 15.6733 28.0164 15.3363 28 14.9999ZM10.8 26.5999C8.81146 26.0038 6.99427 24.9409 5.5 23.4999C3.51585 21.4696 2.28155 18.8247 2 15.9999H8C8.1376 19.6968 9.09392 23.3172 10.8 26.5999ZM10 13.9999C10.0795 10.1014 11.2204 6.29834 13.3 2.99986H14.7C16.7796 6.29834 17.9205 10.1014 18 13.9999H10ZM20 13.9999C19.9239 10.294 18.964 6.65987 17.2 3.39986C19.5529 4.07804 21.6444 5.45457 23.1979 7.34734C24.7514 9.2401 25.6937 11.5599 25.9 13.9999H20Z" fill="#14706C"/>
</svg>
