<svg width="172" height="214" viewBox="0 0 172 214" fill="none" xmlns="http://www.w3.org/2000/svg">
<rect width="172" height="214" rx="16" fill="#CDBCE2"/>
<path d="M21.106 68C20.9847 68 20.924 67.9393 20.924 67.818V59.012C20.924 58.8907 20.9847 58.83 21.106 58.83H23.332C23.4253 58.83 23.4953 58.872 23.542 58.956L25.544 62.988C25.684 63.2773 25.824 63.5713 25.964 63.87C26.104 64.1593 26.23 64.4393 26.342 64.71C26.4633 64.9807 26.5613 65.2327 26.636 65.466H26.678C26.6593 65.214 26.6407 64.9387 26.622 64.64C26.6127 64.332 26.6033 64.0287 26.594 63.73C26.5847 63.422 26.58 63.1467 26.58 62.904V59.012C26.58 58.8907 26.636 58.83 26.748 58.83H28.33C28.4513 58.83 28.512 58.8907 28.512 59.012V67.818C28.512 67.9393 28.4513 68 28.33 68H26.132C26.0293 68 25.9593 67.958 25.922 67.874L23.976 64.01C23.8453 63.7393 23.7147 63.4547 23.584 63.156C23.4533 62.848 23.3227 62.5493 23.192 62.26C23.0707 61.9613 22.9587 61.686 22.856 61.434H22.814C22.8327 61.7047 22.842 61.994 22.842 62.302C22.8513 62.61 22.856 62.918 22.856 63.226C22.856 63.534 22.856 63.828 22.856 64.108V67.818C22.856 67.9393 22.7953 68 22.674 68H21.106ZM30.3996 68C30.2783 68 30.2176 67.9393 30.2176 67.818V61.252C30.2176 61.1307 30.2783 61.07 30.3996 61.07H31.9816C32.1029 61.07 32.1636 61.1307 32.1636 61.252V67.818C32.1636 67.9393 32.1029 68 31.9816 68H30.3996ZM31.1976 60.174C30.8523 60.174 30.5863 60.0853 30.3996 59.908C30.2129 59.7307 30.1196 59.4973 30.1196 59.208V58.956C30.1196 58.648 30.2129 58.41 30.3996 58.242C30.5863 58.0647 30.8523 57.976 31.1976 57.976C31.5523 57.976 31.8183 58.0647 31.9956 58.242C32.1823 58.41 32.2756 58.648 32.2756 58.956V59.208C32.2756 59.4973 32.1823 59.7307 31.9956 59.908C31.8183 60.0853 31.5523 60.174 31.1976 60.174ZM36.4893 70.758C35.3319 70.758 34.4966 70.6133 33.9833 70.324C33.4699 70.044 33.2133 69.6193 33.2133 69.05C33.2133 68.714 33.2973 68.406 33.4653 68.126C33.6333 67.846 33.9039 67.608 34.2773 67.412L35.7473 67.846C35.5419 67.93 35.3926 68.0373 35.2993 68.168C35.2059 68.308 35.1593 68.462 35.1593 68.63C35.1593 68.882 35.2619 69.0547 35.4673 69.148C35.6819 69.2507 36.0553 69.302 36.5873 69.302C37.1939 69.3113 37.5953 69.2647 37.7913 69.162C37.9966 69.0687 38.0993 68.8913 38.0993 68.63C38.0993 68.4527 38.0526 68.3173 37.9593 68.224C37.8753 68.14 37.7306 68.0933 37.5253 68.084L35.0053 67.93C34.6133 67.8927 34.2959 67.762 34.0533 67.538C33.8106 67.314 33.6893 66.9967 33.6893 66.586C33.6893 66.278 33.7593 66.0027 33.8993 65.76C34.0486 65.5173 34.3006 65.2887 34.6553 65.074L35.8173 65.536C35.6399 65.6013 35.5139 65.6807 35.4393 65.774C35.3739 65.8673 35.3413 65.9653 35.3413 66.068C35.3413 66.18 35.3786 66.2593 35.4533 66.306C35.5279 66.3527 35.6539 66.3853 35.8313 66.404L38.0293 66.544C38.7386 66.5907 39.2426 66.7867 39.5413 67.132C39.8493 67.468 40.0033 67.958 40.0033 68.602C40.0033 69.358 39.7233 69.904 39.1633 70.24C38.6126 70.5853 37.7213 70.758 36.4893 70.758ZM36.6433 65.76C35.6913 65.76 34.9819 65.564 34.5153 65.172C34.0579 64.7707 33.8293 64.164 33.8293 63.352C33.8293 62.5213 34.0579 61.9053 34.5153 61.504C34.9819 61.1027 35.6959 60.902 36.6573 60.902C37.6186 60.902 38.3233 61.1027 38.7713 61.504C39.2286 61.9053 39.4573 62.526 39.4573 63.366C39.4573 64.178 39.2286 64.78 38.7713 65.172C38.3139 65.564 37.6046 65.76 36.6433 65.76ZM36.6433 64.318C37.0073 64.318 37.2593 64.2433 37.3993 64.094C37.5393 63.9447 37.6093 63.6927 37.6093 63.338C37.6093 62.9833 37.5393 62.7313 37.3993 62.582C37.2593 62.4233 37.0073 62.344 36.6433 62.344C36.2886 62.344 36.0366 62.4233 35.8873 62.582C35.7473 62.7313 35.6773 62.9833 35.6773 63.338C35.6773 63.6927 35.7473 63.9447 35.8873 64.094C36.0366 64.2433 36.2886 64.318 36.6433 64.318ZM38.5893 61.686L37.2593 61.182C37.2779 60.8367 37.3013 60.5193 37.3293 60.23C37.3666 59.9313 37.4039 59.67 37.4413 59.446C37.4693 59.334 37.5253 59.278 37.6093 59.278H38.8833C39.0326 59.278 39.0839 59.3433 39.0373 59.474C38.9253 59.8007 38.8319 60.1413 38.7573 60.496C38.6919 60.8507 38.6359 61.2473 38.5893 61.686ZM43.9874 68.168C42.9047 68.168 42.102 67.9393 41.5794 67.482C41.066 67.0153 40.8094 66.3293 40.8094 65.424V63.814C40.8094 62.862 41.066 62.1387 41.5794 61.644C42.102 61.1493 42.8954 60.902 43.9594 60.902C44.9954 60.902 45.7747 61.14 46.2974 61.616C46.8294 62.092 47.0954 62.792 47.0954 63.716V64.808C47.0954 64.9293 47.0347 64.99 46.9134 64.99H42.7414V65.41C42.7414 65.8393 42.8347 66.1613 43.0214 66.376C43.2174 66.5813 43.5347 66.684 43.9734 66.684C44.3094 66.684 44.5754 66.6327 44.7714 66.53C44.9674 66.418 45.0654 66.2547 45.0654 66.04C45.0654 65.9187 45.126 65.858 45.2474 65.858H46.7734C46.8854 65.858 46.946 65.9187 46.9554 66.04C46.974 66.7493 46.736 67.2813 46.2414 67.636C45.7467 67.9907 44.9954 68.168 43.9874 68.168ZM42.7414 63.814H45.1914V63.744C45.1914 63.2773 45.0934 62.9367 44.8974 62.722C44.7014 62.5073 44.398 62.4 43.9874 62.4C43.5487 62.4 43.2314 62.512 43.0354 62.736C42.8394 62.9507 42.7414 63.2913 42.7414 63.758V63.814ZM48.6789 68C48.5576 68 48.4969 67.9393 48.4969 67.818V62.834C48.4969 62.5447 48.4876 62.274 48.4689 62.022C48.4596 61.7607 48.4409 61.5087 48.4129 61.266C48.3942 61.1353 48.4549 61.07 48.5949 61.07H49.9809C50.0836 61.07 50.1489 61.1213 50.1769 61.224C50.2142 61.3827 50.2422 61.5647 50.2609 61.77C50.2796 61.9753 50.2936 62.1667 50.3029 62.344L50.4429 63.198V67.818C50.4429 67.9393 50.3822 68 50.2609 68H48.6789ZM50.3029 63.954L50.1909 62.33C50.3776 62.0593 50.5922 61.8167 50.8349 61.602C51.0776 61.3873 51.3202 61.2193 51.5629 61.098C51.8149 60.9673 52.0482 60.902 52.2629 60.902C52.4122 60.902 52.5336 60.9207 52.6269 60.958C52.7202 60.986 52.7716 61.0513 52.7809 61.154C52.7809 61.3967 52.7762 61.6627 52.7669 61.952C52.7669 62.2413 52.7529 62.512 52.7249 62.764C52.7062 62.904 52.6362 62.96 52.5149 62.932C52.4589 62.9133 52.3889 62.8993 52.3049 62.89C52.2209 62.8807 52.1416 62.876 52.0669 62.876C51.8709 62.876 51.6702 62.918 51.4649 63.002C51.2596 63.086 51.0542 63.2073 50.8489 63.366C50.6529 63.5153 50.4709 63.7113 50.3029 63.954ZM53.8742 68C53.7529 68 53.6922 67.9393 53.6922 67.818V61.252C53.6922 61.1307 53.7529 61.07 53.8742 61.07H55.4562C55.5775 61.07 55.6382 61.1307 55.6382 61.252V67.818C55.6382 67.9393 55.5775 68 55.4562 68H53.8742ZM54.6722 60.174C54.3269 60.174 54.0609 60.0853 53.8742 59.908C53.6875 59.7307 53.5942 59.4973 53.5942 59.208V58.956C53.5942 58.648 53.6875 58.41 53.8742 58.242C54.0609 58.0647 54.3269 57.976 54.6722 57.976C55.0269 57.976 55.2929 58.0647 55.4702 58.242C55.6569 58.41 55.7502 58.648 55.7502 58.956V59.208C55.7502 59.4973 55.6569 59.7307 55.4702 59.908C55.2929 60.0853 55.0269 60.174 54.6722 60.174ZM61.3219 68C61.2659 68 61.2239 67.986 61.1959 67.958C61.1679 67.9207 61.1445 67.874 61.1259 67.818C61.1072 67.7153 61.0839 67.5613 61.0559 67.356C61.0279 67.1413 61.0045 66.9313 60.9859 66.726L60.8459 66.138V63.324C60.8459 62.9693 60.7759 62.722 60.6359 62.582C60.5052 62.4327 60.2672 62.358 59.9219 62.358C59.2872 62.358 58.9839 62.596 59.0119 63.072C59.0212 63.1933 58.9605 63.254 58.8299 63.254H57.3599C57.2479 63.254 57.1825 63.1793 57.1639 63.03C57.1079 62.3487 57.3225 61.826 57.8079 61.462C58.3025 61.0887 59.0305 60.902 59.9919 60.902C60.9719 60.902 61.6812 61.1027 62.1199 61.504C62.5679 61.896 62.7919 62.5213 62.7919 63.38V66.222C62.7919 66.5207 62.7965 66.8007 62.8059 67.062C62.8245 67.314 62.8479 67.5613 62.8759 67.804C62.8945 67.9347 62.8339 68 62.6939 68H61.3219ZM58.6339 68.168C58.0739 68.168 57.6399 68 57.3319 67.664C57.0239 67.3187 56.8699 66.8333 56.8699 66.208C56.8699 65.7227 56.9585 65.3307 57.1359 65.032C57.3225 64.724 57.6259 64.486 58.0459 64.318C58.4752 64.1407 59.0445 64.024 59.7539 63.968L61.0559 63.842L61.0419 64.906L60.0059 65.004C59.5299 65.0507 59.1985 65.1487 59.0119 65.298C58.8345 65.438 58.7459 65.6667 58.7459 65.984C58.7459 66.236 58.7972 66.418 58.8999 66.53C59.0025 66.642 59.1565 66.698 59.3619 66.698C59.6232 66.698 59.8845 66.6187 60.1459 66.46C60.4072 66.3013 60.7245 66.0213 61.0979 65.62L61.1819 66.782C60.9205 67.0527 60.6592 67.2953 60.3979 67.51C60.1459 67.7153 59.8752 67.8787 59.5859 68C59.3059 68.112 58.9885 68.168 58.6339 68.168ZM21.106 90C20.9847 90 20.924 89.9393 20.924 89.818V81.012C20.924 80.8907 20.9847 80.83 21.106 80.83H22.744C22.8653 80.83 22.926 80.8907 22.926 81.012V83.224C22.926 83.504 22.9213 83.784 22.912 84.064C22.912 84.3347 22.898 84.6053 22.87 84.876H22.912C23.08 84.624 23.2527 84.3673 23.43 84.106C23.6167 83.8447 23.8127 83.5833 24.018 83.322L25.992 80.928C26.0387 80.8627 26.1087 80.83 26.202 80.83H28.204C28.2787 80.83 28.33 80.8533 28.358 80.9C28.386 80.9373 28.372 80.984 28.316 81.04L25.376 84.54L28.624 89.79C28.6613 89.846 28.666 89.8973 28.638 89.944C28.6193 89.9813 28.5773 90 28.512 90H26.51C26.4073 90 26.3327 89.958 26.286 89.874L24.004 86.122L22.926 87.354V89.818C22.926 89.9393 22.8653 90 22.744 90H21.106ZM32.2295 90.168C31.1469 90.168 30.3442 89.9393 29.8215 89.482C29.3082 89.0153 29.0515 88.3293 29.0515 87.424V85.814C29.0515 84.862 29.3082 84.1387 29.8215 83.644C30.3442 83.1493 31.1375 82.902 32.2015 82.902C33.2375 82.902 34.0169 83.14 34.5395 83.616C35.0715 84.092 35.3375 84.792 35.3375 85.716V86.808C35.3375 86.9293 35.2769 86.99 35.1555 86.99H30.9835V87.41C30.9835 87.8393 31.0769 88.1613 31.2635 88.376C31.4595 88.5813 31.7769 88.684 32.2155 88.684C32.5515 88.684 32.8175 88.6327 33.0135 88.53C33.2095 88.418 33.3075 88.2547 33.3075 88.04C33.3075 87.9187 33.3682 87.858 33.4895 87.858H35.0155C35.1275 87.858 35.1882 87.9187 35.1975 88.04C35.2162 88.7493 34.9782 89.2813 34.4835 89.636C33.9889 89.9907 33.2375 90.168 32.2295 90.168ZM30.9835 85.814H33.4335V85.744C33.4335 85.2773 33.3355 84.9367 33.1395 84.722C32.9435 84.5073 32.6402 84.4 32.2295 84.4C31.7909 84.4 31.4735 84.512 31.2775 84.736C31.0815 84.9507 30.9835 85.2913 30.9835 85.758V85.814ZM41.2471 90C41.1257 90 41.0651 89.9393 41.0651 89.818V85.59C41.0651 85.2447 40.9951 84.9927 40.8551 84.834C40.7244 84.666 40.5097 84.582 40.2111 84.582C39.9124 84.582 39.6184 84.6707 39.3291 84.848C39.0491 85.0253 38.7504 85.2773 38.4331 85.604L38.3211 84.302C38.5637 84.0407 38.8157 83.8073 39.0771 83.602C39.3477 83.3873 39.6371 83.2193 39.9451 83.098C40.2624 82.9673 40.6124 82.902 40.9951 82.902C41.6577 82.902 42.1571 83.0887 42.4931 83.462C42.8384 83.8353 43.0111 84.414 43.0111 85.198V89.818C43.0111 89.9393 42.9504 90 42.8291 90H41.2471ZM36.9211 90C36.7997 90 36.7391 89.9393 36.7391 89.818V84.848C36.7391 84.568 36.7297 84.288 36.7111 84.008C36.6924 83.728 36.6737 83.4853 36.6551 83.28C36.6364 83.14 36.6971 83.07 36.8371 83.07H38.2231C38.3257 83.07 38.3911 83.1213 38.4191 83.224C38.4377 83.308 38.4564 83.42 38.4751 83.56C38.4937 83.6907 38.5124 83.8307 38.5311 83.98C38.5497 84.1293 38.5591 84.2647 38.5591 84.386L38.6851 85.086V89.818C38.6851 89.9393 38.6244 90 38.5031 90H36.9211ZM45.7087 92.59C45.5594 92.59 45.5127 92.52 45.5687 92.38L46.4787 89.958L43.9587 83.28C43.9027 83.14 43.9447 83.07 44.0847 83.07H45.8207C45.9234 83.07 45.9887 83.1213 46.0167 83.224L46.8707 85.772C46.964 86.0707 47.0527 86.3833 47.1367 86.71C47.2207 87.0367 47.3 87.3727 47.3747 87.718H47.4167C47.4914 87.3727 47.5707 87.0413 47.6547 86.724C47.7387 86.3973 47.8274 86.0847 47.9207 85.786L48.7607 83.224C48.7887 83.1213 48.8587 83.07 48.9707 83.07H50.6647C50.814 83.07 50.8607 83.14 50.8047 83.28L47.4447 92.45C47.4167 92.5433 47.3514 92.59 47.2487 92.59H45.7087ZM55.7164 90C55.6604 90 55.6184 89.986 55.5904 89.958C55.5624 89.9207 55.5391 89.874 55.5204 89.818C55.5017 89.7153 55.4784 89.5613 55.4504 89.356C55.4224 89.1413 55.3991 88.9313 55.3804 88.726L55.2404 88.138V85.324C55.2404 84.9693 55.1704 84.722 55.0304 84.582C54.8997 84.4327 54.6617 84.358 54.3164 84.358C53.6817 84.358 53.3784 84.596 53.4064 85.072C53.4157 85.1933 53.3551 85.254 53.2244 85.254H51.7544C51.6424 85.254 51.5771 85.1793 51.5584 85.03C51.5024 84.3487 51.7171 83.826 52.2024 83.462C52.6971 83.0887 53.4251 82.902 54.3864 82.902C55.3664 82.902 56.0757 83.1027 56.5144 83.504C56.9624 83.896 57.1864 84.5213 57.1864 85.38V88.222C57.1864 88.5207 57.1911 88.8007 57.2004 89.062C57.2191 89.314 57.2424 89.5613 57.2704 89.804C57.2891 89.9347 57.2284 90 57.0884 90H55.7164ZM53.0284 90.168C52.4684 90.168 52.0344 90 51.7264 89.664C51.4184 89.3187 51.2644 88.8333 51.2644 88.208C51.2644 87.7227 51.3531 87.3307 51.5304 87.032C51.7171 86.724 52.0204 86.486 52.4404 86.318C52.8697 86.1407 53.4391 86.024 54.1484 85.968L55.4504 85.842L55.4364 86.906L54.4004 87.004C53.9244 87.0507 53.5931 87.1487 53.4064 87.298C53.2291 87.438 53.1404 87.6667 53.1404 87.984C53.1404 88.236 53.1917 88.418 53.2944 88.53C53.3971 88.642 53.5511 88.698 53.7564 88.698C54.0177 88.698 54.2791 88.6187 54.5404 88.46C54.8017 88.3013 55.1191 88.0213 55.4924 87.62L55.5764 88.782C55.3151 89.0527 55.0537 89.2953 54.7924 89.51C54.5404 89.7153 54.2697 89.8787 53.9804 90C53.7004 90.112 53.3831 90.168 53.0284 90.168ZM20.378 112C20.2567 112 20.196 111.944 20.196 111.832V111.734C20.196 111.65 20.2193 111.575 20.266 111.51L23.766 105.882C23.906 105.658 24.0413 105.443 24.172 105.238C24.312 105.023 24.452 104.804 24.592 104.58V104.552C24.3493 104.561 24.0973 104.566 23.836 104.566C23.5747 104.566 23.318 104.566 23.066 104.566H20.798C20.6767 104.566 20.616 104.51 20.616 104.398V103.012C20.616 102.891 20.6767 102.83 20.798 102.83H27.476C27.588 102.83 27.644 102.886 27.644 102.998V103.096C27.644 103.161 27.6253 103.236 27.588 103.32L24.116 108.794C23.9667 109.037 23.8127 109.279 23.654 109.522C23.5047 109.765 23.346 110.007 23.178 110.25V110.278C23.4487 110.269 23.7193 110.264 23.99 110.264C24.27 110.264 24.55 110.264 24.83 110.264H27.14C27.2613 110.264 27.322 110.32 27.322 110.432V111.818C27.322 111.939 27.2613 112 27.14 112H20.378ZM32.7613 112C32.7053 112 32.6633 111.986 32.6353 111.958C32.6073 111.921 32.584 111.874 32.5653 111.818C32.5467 111.715 32.5233 111.561 32.4953 111.356C32.4673 111.141 32.444 110.931 32.4253 110.726L32.2853 110.138V107.324C32.2853 106.969 32.2153 106.722 32.0753 106.582C31.9447 106.433 31.7067 106.358 31.3613 106.358C30.7267 106.358 30.4233 106.596 30.4513 107.072C30.4607 107.193 30.4 107.254 30.2693 107.254H28.7993C28.6873 107.254 28.622 107.179 28.6033 107.03C28.5473 106.349 28.762 105.826 29.2473 105.462C29.742 105.089 30.47 104.902 31.4313 104.902C32.4113 104.902 33.1207 105.103 33.5593 105.504C34.0073 105.896 34.2313 106.521 34.2313 107.38V110.222C34.2313 110.521 34.236 110.801 34.2453 111.062C34.264 111.314 34.2873 111.561 34.3153 111.804C34.334 111.935 34.2733 112 34.1333 112H32.7613ZM30.0733 112.168C29.5133 112.168 29.0793 112 28.7713 111.664C28.4633 111.319 28.3093 110.833 28.3093 110.208C28.3093 109.723 28.398 109.331 28.5753 109.032C28.762 108.724 29.0653 108.486 29.4853 108.318C29.9147 108.141 30.484 108.024 31.1933 107.968L32.4953 107.842L32.4813 108.906L31.4453 109.004C30.9693 109.051 30.638 109.149 30.4513 109.298C30.274 109.438 30.1853 109.667 30.1853 109.984C30.1853 110.236 30.2367 110.418 30.3393 110.53C30.442 110.642 30.596 110.698 30.8013 110.698C31.0627 110.698 31.324 110.619 31.5853 110.46C31.8467 110.301 32.164 110.021 32.5373 109.62L32.6213 110.782C32.36 111.053 32.0987 111.295 31.8373 111.51C31.5853 111.715 31.3147 111.879 31.0253 112C30.7453 112.112 30.428 112.168 30.0733 112.168ZM35.9777 112C35.8564 112 35.7957 111.939 35.7957 111.818V106.848C35.7957 106.568 35.7864 106.297 35.7677 106.036C35.7584 105.765 35.7397 105.509 35.7117 105.266C35.6931 105.135 35.7537 105.07 35.8937 105.07H37.2797C37.3824 105.07 37.4431 105.117 37.4617 105.21C37.4897 105.331 37.5131 105.471 37.5317 105.63C37.5597 105.779 37.5784 105.929 37.5877 106.078C37.9144 105.751 38.2597 105.476 38.6237 105.252C38.9877 105.019 39.4124 104.902 39.8977 104.902C40.3924 104.902 40.7751 105 41.0457 105.196C41.3164 105.392 41.5124 105.686 41.6337 106.078C41.9697 105.742 42.3244 105.462 42.6977 105.238C43.0804 105.014 43.5097 104.902 43.9857 104.902C44.6391 104.902 45.1244 105.089 45.4417 105.462C45.7684 105.835 45.9317 106.414 45.9317 107.198V111.818C45.9317 111.939 45.8711 112 45.7497 112H44.1677C44.0464 112 43.9857 111.939 43.9857 111.818V107.59C43.9857 107.254 43.9251 107.002 43.8037 106.834C43.6824 106.666 43.4864 106.582 43.2157 106.582C42.9824 106.582 42.7537 106.647 42.5297 106.778C42.3151 106.899 42.0864 107.081 41.8437 107.324V111.818C41.8437 111.939 41.7831 112 41.6617 112H40.0797C39.9584 112 39.8977 111.939 39.8977 111.818V107.59C39.8977 107.254 39.8371 107.002 39.7157 106.834C39.5944 106.666 39.3937 106.582 39.1137 106.582C38.8804 106.582 38.6564 106.647 38.4417 106.778C38.2271 106.899 37.9937 107.081 37.7417 107.324V111.818C37.7417 111.939 37.6811 112 37.5597 112H35.9777ZM50.6208 112.168C50.2382 112.168 49.8835 112.145 49.5568 112.098C49.2302 112.061 48.8988 112.019 48.5628 111.972C48.2362 111.916 47.8815 111.874 47.4988 111.846V102.62C47.4988 102.499 47.5595 102.438 47.6808 102.438H49.2628C49.3842 102.438 49.4448 102.499 49.4448 102.62V110.46C49.6128 110.488 49.7808 110.516 49.9488 110.544C50.1262 110.563 50.2942 110.572 50.4528 110.572C50.8822 110.572 51.1995 110.455 51.4048 110.222C51.6102 109.979 51.7128 109.625 51.7128 109.158V107.716C51.7128 107.315 51.6428 107.025 51.5028 106.848C51.3628 106.671 51.1482 106.582 50.8588 106.582C50.6255 106.582 50.3782 106.652 50.1168 106.792C49.8648 106.923 49.5615 107.137 49.2068 107.436L49.2488 105.98C49.6408 105.616 50.0328 105.345 50.4248 105.168C50.8168 104.991 51.2182 104.902 51.6288 104.902C52.3102 104.902 52.8188 105.103 53.1548 105.504C53.4908 105.896 53.6588 106.503 53.6588 107.324V109.326C53.6588 110.287 53.4115 111.001 52.9168 111.468C52.4222 111.935 51.6568 112.168 50.6208 112.168ZM55.2687 112C55.1474 112 55.0867 111.939 55.0867 111.818V105.252C55.0867 105.131 55.1474 105.07 55.2687 105.07H56.8507C56.9721 105.07 57.0327 105.131 57.0327 105.252V111.818C57.0327 111.939 56.9721 112 56.8507 112H55.2687ZM56.0667 104.174C55.7214 104.174 55.4554 104.085 55.2687 103.908C55.0821 103.731 54.9887 103.497 54.9887 103.208V102.956C54.9887 102.648 55.0821 102.41 55.2687 102.242C55.4554 102.065 55.7214 101.976 56.0667 101.976C56.4214 101.976 56.6874 102.065 56.8647 102.242C57.0514 102.41 57.1447 102.648 57.1447 102.956V103.208C57.1447 103.497 57.0514 103.731 56.8647 103.908C56.6874 104.085 56.4214 104.174 56.0667 104.174ZM62.7164 112C62.6604 112 62.6184 111.986 62.5904 111.958C62.5624 111.921 62.5391 111.874 62.5204 111.818C62.5017 111.715 62.4784 111.561 62.4504 111.356C62.4224 111.141 62.3991 110.931 62.3804 110.726L62.2404 110.138V107.324C62.2404 106.969 62.1704 106.722 62.0304 106.582C61.8997 106.433 61.6617 106.358 61.3164 106.358C60.6817 106.358 60.3784 106.596 60.4064 107.072C60.4157 107.193 60.3551 107.254 60.2244 107.254H58.7544C58.6424 107.254 58.5771 107.179 58.5584 107.03C58.5024 106.349 58.7171 105.826 59.2024 105.462C59.6971 105.089 60.4251 104.902 61.3864 104.902C62.3664 104.902 63.0757 105.103 63.5144 105.504C63.9624 105.896 64.1864 106.521 64.1864 107.38V110.222C64.1864 110.521 64.1911 110.801 64.2004 111.062C64.2191 111.314 64.2424 111.561 64.2704 111.804C64.2891 111.935 64.2284 112 64.0884 112H62.7164ZM60.0284 112.168C59.4684 112.168 59.0344 112 58.7264 111.664C58.4184 111.319 58.2644 110.833 58.2644 110.208C58.2644 109.723 58.3531 109.331 58.5304 109.032C58.7171 108.724 59.0204 108.486 59.4404 108.318C59.8697 108.141 60.4391 108.024 61.1484 107.968L62.4504 107.842L62.4364 108.906L61.4004 109.004C60.9244 109.051 60.5931 109.149 60.4064 109.298C60.2291 109.438 60.1404 109.667 60.1404 109.984C60.1404 110.236 60.1917 110.418 60.2944 110.53C60.3971 110.642 60.5511 110.698 60.7564 110.698C61.0177 110.698 61.2791 110.619 61.5404 110.46C61.8017 110.301 62.1191 110.021 62.4924 109.62L62.5764 110.782C62.3151 111.053 62.0537 111.295 61.7924 111.51C61.5404 111.715 61.2697 111.879 60.9804 112C60.7004 112.112 60.3831 112.168 60.0284 112.168ZM72.6559 112C72.5999 112 72.5579 111.986 72.5299 111.958C72.5019 111.921 72.4785 111.874 72.4599 111.818C72.4412 111.715 72.4179 111.561 72.3899 111.356C72.3619 111.141 72.3385 110.931 72.3199 110.726L72.1799 110.138V107.324C72.1799 106.969 72.1099 106.722 71.9699 106.582C71.8392 106.433 71.6012 106.358 71.2559 106.358C70.6212 106.358 70.3179 106.596 70.3459 107.072C70.3552 107.193 70.2945 107.254 70.1639 107.254H68.6939C68.5819 107.254 68.5165 107.179 68.4979 107.03C68.4419 106.349 68.6565 105.826 69.1419 105.462C69.6365 105.089 70.3645 104.902 71.3259 104.902C72.3059 104.902 73.0152 105.103 73.4539 105.504C73.9019 105.896 74.1259 106.521 74.1259 107.38V110.222C74.1259 110.521 74.1305 110.801 74.1399 111.062C74.1585 111.314 74.1819 111.561 74.2099 111.804C74.2285 111.935 74.1679 112 74.0279 112H72.6559ZM69.9679 112.168C69.4079 112.168 68.9739 112 68.6659 111.664C68.3579 111.319 68.2039 110.833 68.2039 110.208C68.2039 109.723 68.2925 109.331 68.4699 109.032C68.6565 108.724 68.9599 108.486 69.3799 108.318C69.8092 108.141 70.3785 108.024 71.0879 107.968L72.3899 107.842L72.3759 108.906L71.3399 109.004C70.8639 109.051 70.5325 109.149 70.3459 109.298C70.1685 109.438 70.0799 109.667 70.0799 109.984C70.0799 110.236 70.1312 110.418 70.2339 110.53C70.3365 110.642 70.4905 110.698 70.6959 110.698C70.9572 110.698 71.2185 110.619 71.4799 110.46C71.7412 110.301 72.0585 110.021 72.4319 109.62L72.5159 110.782C72.2545 111.053 71.9932 111.295 71.7319 111.51C71.4799 111.715 71.2092 111.879 70.9199 112C70.6399 112.112 70.3225 112.168 69.9679 112.168ZM80.1983 112C80.0769 112 80.0163 111.939 80.0163 111.818V107.59C80.0163 107.245 79.9463 106.993 79.8063 106.834C79.6756 106.666 79.4609 106.582 79.1623 106.582C78.8636 106.582 78.5696 106.671 78.2803 106.848C78.0003 107.025 77.7016 107.277 77.3843 107.604L77.2723 106.302C77.5149 106.041 77.7669 105.807 78.0283 105.602C78.2989 105.387 78.5883 105.219 78.8963 105.098C79.2136 104.967 79.5636 104.902 79.9463 104.902C80.6089 104.902 81.1083 105.089 81.4443 105.462C81.7896 105.835 81.9623 106.414 81.9623 107.198V111.818C81.9623 111.939 81.9016 112 81.7803 112H80.1983ZM75.8723 112C75.7509 112 75.6903 111.939 75.6903 111.818V106.848C75.6903 106.568 75.6809 106.288 75.6623 106.008C75.6436 105.728 75.6249 105.485 75.6063 105.28C75.5876 105.14 75.6483 105.07 75.7883 105.07H77.1743C77.2769 105.07 77.3423 105.121 77.3703 105.224C77.3889 105.308 77.4076 105.42 77.4263 105.56C77.4449 105.691 77.4636 105.831 77.4823 105.98C77.5009 106.129 77.5103 106.265 77.5103 106.386L77.6363 107.086V111.818C77.6363 111.939 77.5756 112 77.4543 112H75.8723ZM85.3862 112.168C84.7329 112.168 84.2336 111.972 83.8882 111.58C83.5522 111.188 83.3842 110.581 83.3842 109.76V107.744C83.3842 106.764 83.6036 106.045 84.0422 105.588C84.4809 105.131 85.0876 104.902 85.8622 104.902C86.1796 104.902 86.5296 104.944 86.9122 105.028C87.2949 105.112 87.6076 105.229 87.8502 105.378L87.9062 106.89C87.6636 106.759 87.4116 106.661 87.1502 106.596C86.8889 106.531 86.6556 106.498 86.4502 106.498C86.0676 106.498 85.7829 106.619 85.5962 106.862C85.4189 107.105 85.3302 107.455 85.3302 107.912V109.424C85.3302 109.779 85.3956 110.045 85.5262 110.222C85.6662 110.399 85.8856 110.488 86.1842 110.488C86.3802 110.488 86.5716 110.451 86.7582 110.376C86.9449 110.292 87.1362 110.175 87.3322 110.026C87.5282 109.877 87.7382 109.69 87.9622 109.466L88.0602 110.754C87.8176 111.015 87.5609 111.253 87.2902 111.468C87.0289 111.683 86.7396 111.855 86.4222 111.986C86.1142 112.107 85.7689 112.168 85.3862 112.168ZM88.1582 112C88.0462 112 87.9809 111.944 87.9622 111.832C87.9342 111.692 87.9062 111.524 87.8782 111.328C87.8502 111.123 87.8362 110.936 87.8362 110.768L87.6682 109.97V102.62C87.6682 102.499 87.7289 102.438 87.8502 102.438H89.4462C89.5582 102.438 89.6142 102.499 89.6142 102.62V110.278C89.6142 110.446 89.6189 110.623 89.6282 110.81C89.6376 110.987 89.6469 111.16 89.6562 111.328C89.6749 111.496 89.6889 111.65 89.6982 111.79C89.7262 111.93 89.6702 112 89.5302 112H88.1582ZM96.7412 114.758C95.5839 114.758 94.7486 114.613 94.2352 114.324C93.7219 114.044 93.4652 113.619 93.4652 113.05C93.4652 112.714 93.5492 112.406 93.7172 112.126C93.8852 111.846 94.1559 111.608 94.5292 111.412L95.9992 111.846C95.7939 111.93 95.6446 112.037 95.5512 112.168C95.4579 112.308 95.4112 112.462 95.4112 112.63C95.4112 112.882 95.5139 113.055 95.7192 113.148C95.9339 113.251 96.3072 113.302 96.8392 113.302C97.4459 113.311 97.8472 113.265 98.0432 113.162C98.2486 113.069 98.3512 112.891 98.3512 112.63C98.3512 112.453 98.3046 112.317 98.2112 112.224C98.1272 112.14 97.9826 112.093 97.7772 112.084L95.2572 111.93C94.8652 111.893 94.5479 111.762 94.3052 111.538C94.0626 111.314 93.9412 110.997 93.9412 110.586C93.9412 110.278 94.0112 110.003 94.1512 109.76C94.3006 109.517 94.5526 109.289 94.9072 109.074L96.0692 109.536C95.8919 109.601 95.7659 109.681 95.6912 109.774C95.6259 109.867 95.5932 109.965 95.5932 110.068C95.5932 110.18 95.6306 110.259 95.7052 110.306C95.7799 110.353 95.9059 110.385 96.0832 110.404L98.2812 110.544C98.9906 110.591 99.4946 110.787 99.7932 111.132C100.101 111.468 100.255 111.958 100.255 112.602C100.255 113.358 99.9752 113.904 99.4152 114.24C98.8646 114.585 97.9732 114.758 96.7412 114.758ZM96.8952 109.76C95.9432 109.76 95.2339 109.564 94.7672 109.172C94.3099 108.771 94.0812 108.164 94.0812 107.352C94.0812 106.521 94.3099 105.905 94.7672 105.504C95.2339 105.103 95.9479 104.902 96.9092 104.902C97.8706 104.902 98.5752 105.103 99.0232 105.504C99.4806 105.905 99.7092 106.526 99.7092 107.366C99.7092 108.178 99.4806 108.78 99.0232 109.172C98.5659 109.564 97.8566 109.76 96.8952 109.76ZM96.8952 108.318C97.2592 108.318 97.5112 108.243 97.6512 108.094C97.7912 107.945 97.8612 107.693 97.8612 107.338C97.8612 106.983 97.7912 106.731 97.6512 106.582C97.5112 106.423 97.2592 106.344 96.8952 106.344C96.5406 106.344 96.2886 106.423 96.1392 106.582C95.9992 106.731 95.9292 106.983 95.9292 107.338C95.9292 107.693 95.9992 107.945 96.1392 108.094C96.2886 108.243 96.5406 108.318 96.8952 108.318ZM98.8412 105.686L97.5112 105.182C97.5299 104.837 97.5532 104.519 97.5812 104.23C97.6186 103.931 97.6559 103.67 97.6932 103.446C97.7212 103.334 97.7772 103.278 97.8612 103.278H99.1352C99.2846 103.278 99.3359 103.343 99.2892 103.474C99.1772 103.801 99.0839 104.141 99.0092 104.496C98.9439 104.851 98.8879 105.247 98.8412 105.686ZM101.48 112C101.358 112 101.298 111.939 101.298 111.818V106.834C101.298 106.545 101.288 106.274 101.27 106.022C101.26 105.761 101.242 105.509 101.214 105.266C101.195 105.135 101.256 105.07 101.396 105.07H102.782C102.884 105.07 102.95 105.121 102.978 105.224C103.015 105.383 103.043 105.565 103.062 105.77C103.08 105.975 103.094 106.167 103.104 106.344L103.244 107.198V111.818C103.244 111.939 103.183 112 103.062 112H101.48ZM103.104 107.954L102.992 106.33C103.178 106.059 103.393 105.817 103.636 105.602C103.878 105.387 104.121 105.219 104.364 105.098C104.616 104.967 104.849 104.902 105.064 104.902C105.213 104.902 105.334 104.921 105.428 104.958C105.521 104.986 105.572 105.051 105.582 105.154C105.582 105.397 105.577 105.663 105.568 105.952C105.568 106.241 105.554 106.512 105.526 106.764C105.507 106.904 105.437 106.96 105.316 106.932C105.26 106.913 105.19 106.899 105.106 106.89C105.022 106.881 104.942 106.876 104.868 106.876C104.672 106.876 104.471 106.918 104.266 107.002C104.06 107.086 103.855 107.207 103.65 107.366C103.454 107.515 103.272 107.711 103.104 107.954ZM109.518 112.168C108.5 112.168 107.707 111.925 107.138 111.44C106.578 110.955 106.298 110.227 106.298 109.256V107.814C106.298 106.843 106.578 106.115 107.138 105.63C107.707 105.145 108.5 104.902 109.518 104.902C110.544 104.902 111.338 105.145 111.898 105.63C112.458 106.115 112.738 106.843 112.738 107.814V109.256C112.738 110.227 112.458 110.955 111.898 111.44C111.338 111.925 110.544 112.168 109.518 112.168ZM109.518 110.516C109.966 110.516 110.288 110.404 110.484 110.18C110.689 109.947 110.792 109.578 110.792 109.074V107.996C110.792 107.492 110.689 107.128 110.484 106.904C110.288 106.671 109.966 106.554 109.518 106.554C109.079 106.554 108.757 106.671 108.552 106.904C108.346 107.128 108.244 107.492 108.244 107.996V109.074C108.244 109.578 108.346 109.947 108.552 110.18C108.757 110.404 109.079 110.516 109.518 110.516ZM115.901 112C115.798 112 115.728 111.949 115.691 111.846L113.619 105.28C113.581 105.14 113.628 105.07 113.759 105.07H115.439C115.541 105.07 115.607 105.126 115.635 105.238L116.405 108.36C116.479 108.668 116.545 108.976 116.601 109.284C116.666 109.583 116.727 109.886 116.783 110.194H116.825C116.909 109.895 116.993 109.601 117.077 109.312C117.161 109.013 117.24 108.719 117.315 108.43L117.791 106.778L117.469 105.434C117.441 105.294 117.492 105.224 117.623 105.224H119.079C119.191 105.224 119.261 105.275 119.289 105.378L120.003 108.388C120.068 108.687 120.129 108.985 120.185 109.284C120.25 109.583 120.32 109.886 120.395 110.194H120.437C120.483 109.877 120.539 109.564 120.605 109.256C120.67 108.939 120.74 108.631 120.815 108.332L121.585 105.238C121.613 105.126 121.678 105.07 121.781 105.07H123.461C123.591 105.07 123.638 105.14 123.601 105.28L121.515 111.846C121.477 111.949 121.412 112 121.319 112H119.597C119.494 112 119.429 111.949 119.401 111.846L119.093 110.796C119.009 110.497 118.929 110.185 118.855 109.858C118.78 109.522 118.71 109.13 118.645 108.682H118.603C118.537 109.13 118.463 109.517 118.379 109.844C118.295 110.171 118.211 110.483 118.127 110.782L117.819 111.846C117.791 111.949 117.721 112 117.609 112H115.901ZM124.872 112C124.751 112 124.69 111.939 124.69 111.818V105.252C124.69 105.131 124.751 105.07 124.872 105.07H126.454C126.576 105.07 126.636 105.131 126.636 105.252V111.818C126.636 111.939 126.576 112 126.454 112H124.872ZM125.67 104.174C125.325 104.174 125.059 104.085 124.872 103.908C124.686 103.731 124.592 103.497 124.592 103.208V102.956C124.592 102.648 124.686 102.41 124.872 102.242C125.059 102.065 125.325 101.976 125.67 101.976C126.025 101.976 126.291 102.065 126.468 102.242C126.655 102.41 126.748 102.648 126.748 102.956V103.208C126.748 103.497 126.655 103.731 126.468 103.908C126.291 104.085 126.025 104.174 125.67 104.174ZM132.712 112C132.591 112 132.53 111.939 132.53 111.818V107.59C132.53 107.245 132.46 106.993 132.32 106.834C132.189 106.666 131.975 106.582 131.676 106.582C131.377 106.582 131.083 106.671 130.794 106.848C130.514 107.025 130.215 107.277 129.898 107.604L129.786 106.302C130.029 106.041 130.281 105.807 130.542 105.602C130.813 105.387 131.102 105.219 131.41 105.098C131.727 104.967 132.077 104.902 132.46 104.902C133.123 104.902 133.622 105.089 133.958 105.462C134.303 105.835 134.476 106.414 134.476 107.198V111.818C134.476 111.939 134.415 112 134.294 112H132.712ZM128.386 112C128.265 112 128.204 111.939 128.204 111.818V106.848C128.204 106.568 128.195 106.288 128.176 106.008C128.157 105.728 128.139 105.485 128.12 105.28C128.101 105.14 128.162 105.07 128.302 105.07H129.688C129.791 105.07 129.856 105.121 129.884 105.224C129.903 105.308 129.921 105.42 129.94 105.56C129.959 105.691 129.977 105.831 129.996 105.98C130.015 106.129 130.024 106.265 130.024 106.386L130.15 107.086V111.818C130.15 111.939 130.089 112 129.968 112H128.386ZM138.796 114.758C137.639 114.758 136.803 114.613 136.29 114.324C135.777 114.044 135.52 113.619 135.52 113.05C135.52 112.714 135.604 112.406 135.772 112.126C135.94 111.846 136.211 111.608 136.584 111.412L138.054 111.846C137.849 111.93 137.699 112.037 137.606 112.168C137.513 112.308 137.466 112.462 137.466 112.63C137.466 112.882 137.569 113.055 137.774 113.148C137.989 113.251 138.362 113.302 138.894 113.302C139.501 113.311 139.902 113.265 140.098 113.162C140.303 113.069 140.406 112.891 140.406 112.63C140.406 112.453 140.359 112.317 140.266 112.224C140.182 112.14 140.037 112.093 139.832 112.084L137.312 111.93C136.92 111.893 136.603 111.762 136.36 111.538C136.117 111.314 135.996 110.997 135.996 110.586C135.996 110.278 136.066 110.003 136.206 109.76C136.355 109.517 136.607 109.289 136.962 109.074L138.124 109.536C137.947 109.601 137.821 109.681 137.746 109.774C137.681 109.867 137.648 109.965 137.648 110.068C137.648 110.18 137.685 110.259 137.76 110.306C137.835 110.353 137.961 110.385 138.138 110.404L140.336 110.544C141.045 110.591 141.549 110.787 141.848 111.132C142.156 111.468 142.31 111.958 142.31 112.602C142.31 113.358 142.03 113.904 141.47 114.24C140.919 114.585 140.028 114.758 138.796 114.758ZM138.95 109.76C137.998 109.76 137.289 109.564 136.822 109.172C136.365 108.771 136.136 108.164 136.136 107.352C136.136 106.521 136.365 105.905 136.822 105.504C137.289 105.103 138.003 104.902 138.964 104.902C139.925 104.902 140.63 105.103 141.078 105.504C141.535 105.905 141.764 106.526 141.764 107.366C141.764 108.178 141.535 108.78 141.078 109.172C140.621 109.564 139.911 109.76 138.95 109.76ZM138.95 108.318C139.314 108.318 139.566 108.243 139.706 108.094C139.846 107.945 139.916 107.693 139.916 107.338C139.916 106.983 139.846 106.731 139.706 106.582C139.566 106.423 139.314 106.344 138.95 106.344C138.595 106.344 138.343 106.423 138.194 106.582C138.054 106.731 137.984 106.983 137.984 107.338C137.984 107.693 138.054 107.945 138.194 108.094C138.343 108.243 138.595 108.318 138.95 108.318ZM140.896 105.686L139.566 105.182C139.585 104.837 139.608 104.519 139.636 104.23C139.673 103.931 139.711 103.67 139.748 103.446C139.776 103.334 139.832 103.278 139.916 103.278H141.19C141.339 103.278 141.391 103.343 141.344 103.474C141.232 103.801 141.139 104.141 141.064 104.496C140.999 104.851 140.943 105.247 140.896 105.686Z" fill="black"/>
<path d="M22.82 38C22.74 38 22.7 37.96 22.7 37.88V31.064H20.54C20.46 31.064 20.42 31.024 20.42 30.944V30.26C20.42 30.18 20.46 30.14 20.54 30.14H25.88C25.96 30.14 26 30.18 26 30.26V30.944C26 31.024 25.96 31.064 25.88 31.064H23.72V37.88C23.72 37.96 23.68 38 23.6 38H22.82ZM29.7569 38C29.7089 38 29.6769 37.984 29.6609 37.952C29.6449 37.92 29.6289 37.88 29.6129 37.832C29.6049 37.768 29.5849 37.632 29.5529 37.424C29.5289 37.208 29.5129 37.016 29.5049 36.848L29.4689 36.392V34.004C29.4689 33.604 29.3889 33.32 29.2289 33.152C29.0689 32.984 28.7889 32.9 28.3889 32.9C27.6689 32.9 27.3089 33.148 27.3089 33.644C27.3089 33.724 27.2729 33.764 27.2009 33.764H26.4089C26.3289 33.764 26.2849 33.688 26.2769 33.536C26.2369 33.08 26.4129 32.712 26.8049 32.432C27.2049 32.144 27.7449 32 28.4249 32C29.1209 32 29.6369 32.164 29.9729 32.492C30.3169 32.82 30.4889 33.316 30.4889 33.98V36.548C30.4889 36.828 30.4969 37.08 30.5129 37.304C30.5289 37.52 30.5489 37.708 30.5729 37.868C30.5889 37.956 30.5489 38 30.4529 38H29.7569ZM27.4649 38.144C27.0009 38.144 26.6449 38.004 26.3969 37.724C26.1569 37.444 26.0369 37.036 26.0369 36.5C26.0369 36.084 26.1169 35.744 26.2769 35.48C26.4449 35.216 26.7089 35.012 27.0689 34.868C27.4369 34.724 27.9249 34.628 28.5329 34.58L29.6609 34.484V35.264L28.5089 35.36C27.9569 35.408 27.5769 35.508 27.3689 35.66C27.1609 35.812 27.0569 36.068 27.0569 36.428C27.0569 36.7 27.1129 36.904 27.2249 37.04C27.3369 37.176 27.5049 37.244 27.7289 37.244C27.9929 37.244 28.2689 37.156 28.5569 36.98C28.8449 36.796 29.2249 36.46 29.6969 35.972V36.872C29.4169 37.176 29.1529 37.424 28.9049 37.616C28.6649 37.8 28.4289 37.932 28.1969 38.012C27.9649 38.1 27.7209 38.144 27.4649 38.144ZM32.4106 38C32.3306 38 32.2906 37.96 32.2906 37.88V29.924C32.2906 29.844 32.3306 29.804 32.4106 29.804H33.1906C33.2706 29.804 33.3106 29.844 33.3106 29.924V37.88C33.3106 37.96 33.2706 38 33.1906 38H32.4106ZM37.3468 38.144C36.5788 38.144 35.9868 37.964 35.5708 37.604C35.1628 37.244 34.9588 36.712 34.9588 36.008V34.328C34.9588 33.568 35.1628 32.992 35.5708 32.6C35.9788 32.2 36.5708 32 37.3468 32C38.1228 32 38.7108 32.196 39.1108 32.588C39.5188 32.972 39.7228 33.532 39.7228 34.268V35.204C39.7228 35.284 39.6828 35.324 39.6028 35.324H35.9788V35.708C35.9788 36.244 36.0908 36.636 36.3148 36.884C36.5388 37.124 36.9028 37.244 37.4068 37.244C37.7828 37.244 38.0708 37.184 38.2708 37.064C38.4788 36.936 38.5828 36.752 38.5828 36.512C38.5828 36.424 38.6268 36.38 38.7148 36.38H39.4948C39.5588 36.38 39.5988 36.416 39.6148 36.488C39.6468 37 39.4588 37.404 39.0508 37.7C38.6428 37.996 38.0748 38.144 37.3468 38.144ZM35.9788 34.448H38.7028V34.376C38.7028 33.872 38.5908 33.5 38.3668 33.26C38.1428 33.02 37.8068 32.9 37.3588 32.9C36.8948 32.9 36.5468 33.024 36.3148 33.272C36.0908 33.52 35.9788 33.892 35.9788 34.388V34.448ZM45.3095 38C45.2295 38 45.1895 37.96 45.1895 37.88V34.052C45.1895 33.652 45.1055 33.36 44.9375 33.176C44.7775 32.992 44.5335 32.9 44.2055 32.9C43.8935 32.9 43.5855 32.992 43.2815 33.176C42.9775 33.36 42.5975 33.676 42.1415 34.124L42.1535 33.2C42.4255 32.912 42.6815 32.68 42.9215 32.504C43.1695 32.328 43.4135 32.2 43.6535 32.12C43.9015 32.04 44.1615 32 44.4335 32C45.0095 32 45.4495 32.168 45.7535 32.504C46.0575 32.84 46.2095 33.34 46.2095 34.004V37.88C46.2095 37.96 46.1695 38 46.0895 38H45.3095ZM41.4575 38C41.3775 38 41.3375 37.96 41.3375 37.88V33.608C41.3375 33.4 41.3255 33.168 41.3015 32.912C41.2855 32.648 41.2695 32.444 41.2535 32.3C41.2375 32.196 41.2775 32.144 41.3735 32.144H42.1055C42.1775 32.144 42.2215 32.184 42.2375 32.264C42.2535 32.328 42.2695 32.428 42.2855 32.564C42.3015 32.7 42.3175 32.844 42.3335 32.996C42.3495 33.14 42.3575 33.264 42.3575 33.368V33.68V37.88C42.3575 37.96 42.3175 38 42.2375 38H41.4575ZM50.1747 38.144C49.7667 38.144 49.4387 38.076 49.1907 37.94C48.9507 37.796 48.7747 37.584 48.6627 37.304C48.5587 37.024 48.5067 36.676 48.5067 36.26V33.02H47.5827C47.5027 33.02 47.4627 32.98 47.4627 32.9V32.264C47.4627 32.184 47.5027 32.144 47.5827 32.144H48.5307L48.6627 30.704C48.6707 30.624 48.7147 30.584 48.7947 30.584H49.3947C49.4747 30.584 49.5147 30.624 49.5147 30.704L49.5267 32.144H51.3147C51.3947 32.144 51.4347 32.184 51.4347 32.264V32.9C51.4347 32.98 51.3947 33.02 51.3147 33.02H49.5267V36.236C49.5267 36.612 49.5907 36.876 49.7187 37.028C49.8547 37.18 50.0827 37.256 50.4027 37.256C50.5627 37.256 50.7227 37.24 50.8827 37.208C51.0427 37.168 51.1827 37.12 51.3027 37.064C51.3987 37.024 51.4467 37.052 51.4467 37.148V37.808C51.4467 37.872 51.4147 37.916 51.3507 37.94C51.2067 37.996 51.0387 38.044 50.8467 38.084C50.6547 38.124 50.4307 38.144 50.1747 38.144ZM54.6358 38.144C53.9158 38.144 53.3758 37.988 53.0158 37.676C52.6558 37.356 52.4758 36.88 52.4758 36.248C52.4758 36.176 52.5158 36.14 52.5958 36.14H53.3878C53.4598 36.14 53.4958 36.172 53.4958 36.236C53.4958 36.596 53.5838 36.856 53.7598 37.016C53.9438 37.176 54.2398 37.256 54.6478 37.256C55.0398 37.256 55.3358 37.192 55.5358 37.064C55.7358 36.928 55.8358 36.736 55.8358 36.488C55.8358 36.304 55.7798 36.152 55.6678 36.032C55.5558 35.904 55.3798 35.788 55.1398 35.684L53.7718 35.12C53.3318 34.936 53.0198 34.728 52.8358 34.496C52.6518 34.264 52.5598 33.964 52.5598 33.596C52.5598 33.068 52.7278 32.672 53.0638 32.408C53.3998 32.136 53.8998 32 54.5638 32C55.2438 32 55.7718 32.144 56.1478 32.432C56.5238 32.712 56.7118 33.112 56.7118 33.632C56.7118 33.704 56.6718 33.74 56.5918 33.74H55.7998C55.7198 33.74 55.6798 33.676 55.6798 33.548C55.6798 33.34 55.5838 33.18 55.3918 33.068C55.1998 32.948 54.9358 32.888 54.5998 32.888C54.2558 32.888 53.9998 32.948 53.8318 33.068C53.6638 33.18 53.5798 33.356 53.5798 33.596C53.5798 33.772 53.6238 33.904 53.7118 33.992C53.8078 34.08 53.9958 34.184 54.2758 34.304L55.6438 34.88C56.0678 35.056 56.3758 35.264 56.5678 35.504C56.7598 35.744 56.8558 36.052 56.8558 36.428C56.8558 36.98 56.6638 37.404 56.2798 37.7C55.8958 37.996 55.3478 38.144 54.6358 38.144ZM63.1178 38.144C62.3178 38.144 61.7098 37.944 61.2938 37.544C60.8778 37.144 60.6698 36.568 60.6698 35.816V34.328C60.6698 33.576 60.8818 33 61.3058 32.6C61.7298 32.2 62.3418 32 63.1418 32C63.6138 32 64.0178 32.072 64.3538 32.216C64.6898 32.36 64.9498 32.56 65.1338 32.816C65.3178 33.064 65.4098 33.36 65.4098 33.704C65.4098 33.888 65.3698 33.98 65.2898 33.98H64.4978C64.4258 33.98 64.3898 33.916 64.3898 33.788C64.3898 33.508 64.2778 33.292 64.0538 33.14C63.8298 32.98 63.5258 32.9 63.1418 32.9C62.6538 32.9 62.2898 33.024 62.0498 33.272C61.8098 33.52 61.6898 33.904 61.6898 34.424V35.72C61.6898 36.232 61.8098 36.616 62.0498 36.872C62.2898 37.12 62.6498 37.244 63.1298 37.244C63.5138 37.244 63.8178 37.16 64.0418 36.992C64.2658 36.824 64.3778 36.616 64.3778 36.368C64.3778 36.24 64.4138 36.176 64.4858 36.176H65.2778C65.3578 36.176 65.3978 36.212 65.3978 36.284C65.3978 36.852 65.2018 37.304 64.8098 37.64C64.4178 37.976 63.8538 38.144 63.1178 38.144ZM68.609 38.144C68.097 38.144 67.705 37.972 67.433 37.628C67.161 37.284 67.025 36.788 67.025 36.14V32.264C67.025 32.184 67.065 32.144 67.145 32.144H67.925C68.005 32.144 68.045 32.184 68.045 32.264V36.092C68.045 36.484 68.113 36.776 68.249 36.968C68.393 37.152 68.613 37.244 68.909 37.244C69.205 37.244 69.501 37.152 69.797 36.968C70.101 36.784 70.477 36.464 70.925 36.008L70.901 36.956C70.645 37.22 70.389 37.44 70.133 37.616C69.877 37.792 69.621 37.924 69.365 38.012C69.117 38.1 68.865 38.144 68.609 38.144ZM71.009 38C70.921 38 70.873 37.96 70.865 37.88C70.841 37.728 70.821 37.572 70.805 37.412C70.789 37.252 70.777 37.088 70.769 36.92L70.709 36.416V32.264C70.709 32.184 70.749 32.144 70.829 32.144H71.609C71.689 32.144 71.729 32.184 71.729 32.264V36.536C71.729 36.752 71.733 36.976 71.741 37.208C71.757 37.44 71.781 37.664 71.813 37.88C71.829 37.96 71.785 38 71.681 38H71.009ZM73.6489 38C73.5689 38 73.5289 37.96 73.5289 37.88V33.572C73.5289 33.348 73.5209 33.132 73.5049 32.924C73.4969 32.708 73.4769 32.492 73.4449 32.276C73.4289 32.188 73.4689 32.144 73.5649 32.144H74.2969C74.3769 32.144 74.4209 32.18 74.4289 32.252C74.4609 32.404 74.4849 32.58 74.5009 32.78C74.5169 32.972 74.5249 33.136 74.5249 33.272L74.5489 33.908V37.88C74.5489 37.96 74.5089 38 74.4289 38H73.6489ZM74.4169 34.268L74.3929 33.284C74.5609 33.036 74.7529 32.816 74.9689 32.624C75.1929 32.432 75.4169 32.28 75.6409 32.168C75.8729 32.056 76.0849 32 76.2769 32C76.4209 32 76.5289 32.012 76.6009 32.036C76.6649 32.052 76.7009 32.092 76.7089 32.156C76.7249 32.324 76.7289 32.496 76.7209 32.672C76.7209 32.848 76.7089 33.016 76.6849 33.176C76.6689 33.264 76.6169 33.296 76.5289 33.272C76.4649 33.256 76.3969 33.244 76.3249 33.236C76.2529 33.228 76.1769 33.224 76.0969 33.224C75.8969 33.224 75.6969 33.268 75.4969 33.356C75.2969 33.444 75.1049 33.568 74.9209 33.728C74.7369 33.88 74.5689 34.06 74.4169 34.268ZM77.9263 38C77.8463 38 77.8063 37.96 77.8063 37.88V33.572C77.8063 33.348 77.7983 33.132 77.7823 32.924C77.7743 32.708 77.7543 32.492 77.7223 32.276C77.7063 32.188 77.7463 32.144 77.8423 32.144H78.5743C78.6543 32.144 78.6983 32.18 78.7063 32.252C78.7383 32.404 78.7623 32.58 78.7783 32.78C78.7943 32.972 78.8023 33.136 78.8023 33.272L78.8263 33.908V37.88C78.8263 37.96 78.7863 38 78.7063 38H77.9263ZM78.6943 34.268L78.6702 33.284C78.8383 33.036 79.0303 32.816 79.2463 32.624C79.4703 32.432 79.6943 32.28 79.9183 32.168C80.1503 32.056 80.3623 32 80.5543 32C80.6983 32 80.8063 32.012 80.8783 32.036C80.9423 32.052 80.9783 32.092 80.9863 32.156C81.0023 32.324 81.0063 32.496 80.9983 32.672C80.9983 32.848 80.9863 33.016 80.9623 33.176C80.9463 33.264 80.8943 33.296 80.8063 33.272C80.7423 33.256 80.6743 33.244 80.6023 33.236C80.5303 33.228 80.4543 33.224 80.3743 33.224C80.1743 33.224 79.9743 33.268 79.7743 33.356C79.5743 33.444 79.3823 33.568 79.1983 33.728C79.0143 33.88 78.8463 34.06 78.6943 34.268ZM84.1984 38.144C83.4304 38.144 82.8384 37.964 82.4224 37.604C82.0144 37.244 81.8104 36.712 81.8104 36.008V34.328C81.8104 33.568 82.0144 32.992 82.4224 32.6C82.8304 32.2 83.4224 32 84.1984 32C84.9744 32 85.5624 32.196 85.9624 32.588C86.3704 32.972 86.5744 33.532 86.5744 34.268V35.204C86.5744 35.284 86.5344 35.324 86.4544 35.324H82.8304V35.708C82.8304 36.244 82.9424 36.636 83.1664 36.884C83.3904 37.124 83.7544 37.244 84.2584 37.244C84.6344 37.244 84.9224 37.184 85.1224 37.064C85.3304 36.936 85.4344 36.752 85.4344 36.512C85.4344 36.424 85.4784 36.38 85.5664 36.38H86.3464C86.4104 36.38 86.4504 36.416 86.4664 36.488C86.4984 37 86.3104 37.404 85.9024 37.7C85.4944 37.996 84.9264 38.144 84.1984 38.144ZM82.8304 34.448H85.5544V34.376C85.5544 33.872 85.4424 33.5 85.2184 33.26C84.9944 33.02 84.6584 32.9 84.2104 32.9C83.7464 32.9 83.3984 33.024 83.1664 33.272C82.9424 33.52 82.8304 33.892 82.8304 34.388V34.448ZM92.1611 38C92.0811 38 92.0411 37.96 92.0411 37.88V34.052C92.0411 33.652 91.9571 33.36 91.7891 33.176C91.6291 32.992 91.3851 32.9 91.0571 32.9C90.7451 32.9 90.4371 32.992 90.1331 33.176C89.8291 33.36 89.4491 33.676 88.9931 34.124L89.0051 33.2C89.2771 32.912 89.5331 32.68 89.7731 32.504C90.0211 32.328 90.2651 32.2 90.5051 32.12C90.7531 32.04 91.0131 32 91.2851 32C91.8611 32 92.3011 32.168 92.6051 32.504C92.9091 32.84 93.0611 33.34 93.0611 34.004V37.88C93.0611 37.96 93.0211 38 92.9411 38H92.1611ZM88.3091 38C88.2291 38 88.1891 37.96 88.1891 37.88V33.608C88.1891 33.4 88.1771 33.168 88.1531 32.912C88.1371 32.648 88.1211 32.444 88.1051 32.3C88.0891 32.196 88.1291 32.144 88.2251 32.144H88.9571C89.0291 32.144 89.0731 32.184 89.0891 32.264C89.1051 32.328 89.1211 32.428 89.1371 32.564C89.1531 32.7 89.1691 32.844 89.1851 32.996C89.2011 33.14 89.2091 33.264 89.2091 33.368V33.68V37.88C89.2091 37.96 89.1691 38 89.0891 38H88.3091ZM97.0262 38.144C96.6182 38.144 96.2902 38.076 96.0422 37.94C95.8022 37.796 95.6262 37.584 95.5142 37.304C95.4102 37.024 95.3582 36.676 95.3582 36.26V33.02H94.4342C94.3542 33.02 94.3142 32.98 94.3142 32.9V32.264C94.3142 32.184 94.3542 32.144 94.4342 32.144H95.3822L95.5142 30.704C95.5222 30.624 95.5662 30.584 95.6462 30.584H96.2462C96.3262 30.584 96.3662 30.624 96.3662 30.704L96.3782 32.144H98.1662C98.2462 32.144 98.2862 32.184 98.2862 32.264V32.9C98.2862 32.98 98.2462 33.02 98.1662 33.02H96.3782V36.236C96.3782 36.612 96.4422 36.876 96.5702 37.028C96.7062 37.18 96.9342 37.256 97.2542 37.256C97.4142 37.256 97.5742 37.24 97.7342 37.208C97.8942 37.168 98.0342 37.12 98.1542 37.064C98.2502 37.024 98.2982 37.052 98.2982 37.148V37.808C98.2982 37.872 98.2662 37.916 98.2022 37.94C98.0582 37.996 97.8902 38.044 97.6982 38.084C97.5062 38.124 97.2822 38.144 97.0262 38.144ZM99.7114 38C99.6314 38 99.5914 37.96 99.5914 37.88V29.924C99.5914 29.844 99.6314 29.804 99.7114 29.804H100.491C100.571 29.804 100.611 29.844 100.611 29.924V37.88C100.611 37.96 100.571 38 100.491 38H99.7114ZM103.256 40.22C103.16 40.22 103.132 40.172 103.172 40.076L104.024 37.928L101.804 32.288C101.764 32.192 101.792 32.144 101.888 32.144H102.74C102.804 32.144 102.848 32.176 102.872 32.24L103.952 35.144C104.048 35.392 104.14 35.648 104.228 35.912C104.324 36.176 104.416 36.436 104.504 36.692H104.516C104.604 36.436 104.696 36.176 104.792 35.912C104.896 35.648 104.992 35.392 105.08 35.144L106.16 32.24C106.184 32.176 106.232 32.144 106.304 32.144H107.108C107.212 32.144 107.244 32.192 107.204 32.288L104.168 40.124C104.144 40.188 104.1 40.22 104.036 40.22H103.256ZM111.404 38C111.372 38 111.344 37.988 111.32 37.964C111.296 37.94 111.284 37.912 111.284 37.88V33.02H110.36C110.328 33.02 110.3 33.008 110.276 32.984C110.252 32.96 110.24 32.932 110.24 32.9V32.264C110.24 32.224 110.252 32.196 110.276 32.18C110.3 32.156 110.328 32.144 110.36 32.144H111.284V31.52C111.284 30.928 111.456 30.472 111.8 30.152C112.152 29.824 112.632 29.66 113.24 29.66C113.424 29.66 113.612 29.68 113.804 29.72C113.996 29.752 114.16 29.796 114.296 29.852C114.448 29.908 114.524 29.976 114.524 30.056V30.692C114.524 30.74 114.504 30.772 114.464 30.788C114.432 30.804 114.36 30.788 114.248 30.74C114.12 30.684 113.968 30.64 113.792 30.608C113.616 30.568 113.456 30.548 113.312 30.548C112.984 30.548 112.732 30.632 112.556 30.8C112.388 30.968 112.304 31.216 112.304 31.544V32.144H114.044C114.124 32.144 114.164 32.184 114.164 32.264V32.9C114.164 32.932 114.152 32.96 114.128 32.984C114.112 33.008 114.084 33.02 114.044 33.02H112.304V37.88C112.304 37.912 112.292 37.94 112.268 37.964C112.252 37.988 112.224 38 112.184 38H111.404ZM115.426 38C115.346 38 115.306 37.96 115.306 37.88V33.572C115.306 33.348 115.298 33.132 115.282 32.924C115.274 32.708 115.254 32.492 115.222 32.276C115.206 32.188 115.246 32.144 115.342 32.144H116.074C116.154 32.144 116.198 32.18 116.206 32.252C116.238 32.404 116.262 32.58 116.278 32.78C116.294 32.972 116.302 33.136 116.302 33.272L116.326 33.908V37.88C116.326 37.96 116.286 38 116.206 38H115.426ZM116.194 34.268L116.17 33.284C116.338 33.036 116.53 32.816 116.746 32.624C116.97 32.432 117.194 32.28 117.418 32.168C117.65 32.056 117.862 32 118.054 32C118.198 32 118.306 32.012 118.378 32.036C118.442 32.052 118.478 32.092 118.486 32.156C118.502 32.324 118.506 32.496 118.498 32.672C118.498 32.848 118.486 33.016 118.462 33.176C118.446 33.264 118.394 33.296 118.306 33.272C118.242 33.256 118.174 33.244 118.102 33.236C118.03 33.228 117.954 33.224 117.874 33.224C117.674 33.224 117.474 33.268 117.274 33.356C117.074 33.444 116.882 33.568 116.698 33.728C116.514 33.88 116.346 34.06 116.194 34.268ZM121.782 38.144C120.974 38.144 120.358 37.948 119.934 37.556C119.518 37.164 119.31 36.568 119.31 35.768V34.376C119.31 33.576 119.518 32.98 119.934 32.588C120.35 32.196 120.966 32 121.782 32C122.59 32 123.202 32.196 123.618 32.588C124.042 32.98 124.254 33.576 124.254 34.376V35.768C124.254 36.568 124.046 37.164 123.63 37.556C123.214 37.948 122.598 38.144 121.782 38.144ZM121.782 37.244C122.294 37.244 122.662 37.116 122.886 36.86C123.118 36.596 123.234 36.2 123.234 35.672V34.472C123.234 33.944 123.118 33.552 122.886 33.296C122.662 33.032 122.294 32.9 121.782 32.9C121.27 32.9 120.898 33.032 120.666 33.296C120.442 33.552 120.33 33.944 120.33 34.472V35.672C120.33 36.2 120.442 36.596 120.666 36.86C120.898 37.116 121.27 37.244 121.782 37.244ZM126.02 38C125.94 38 125.9 37.96 125.9 37.88V33.608C125.9 33.392 125.892 33.168 125.876 32.936C125.868 32.696 125.848 32.48 125.816 32.288C125.8 32.192 125.844 32.144 125.948 32.144H126.668C126.74 32.144 126.78 32.172 126.788 32.228C126.804 32.348 126.824 32.476 126.848 32.612C126.872 32.748 126.888 32.888 126.896 33.032C127.256 32.672 127.596 32.412 127.916 32.252C128.236 32.084 128.58 32 128.948 32C129.356 32 129.684 32.096 129.932 32.288C130.188 32.472 130.368 32.748 130.472 33.116C130.856 32.724 131.212 32.44 131.54 32.264C131.868 32.088 132.224 32 132.608 32C133.144 32 133.548 32.168 133.82 32.504C134.1 32.84 134.24 33.336 134.24 33.992V37.88C134.24 37.96 134.2 38 134.12 38H133.34C133.26 38 133.22 37.96 133.22 37.88V34.052C133.22 33.668 133.148 33.38 133.004 33.188C132.868 32.996 132.652 32.9 132.356 32.9C132.092 32.9 131.82 32.984 131.54 33.152C131.268 33.312 130.948 33.568 130.58 33.92V37.88C130.58 37.96 130.54 38 130.46 38H129.68C129.6 38 129.56 37.96 129.56 37.88V34.052C129.56 33.668 129.488 33.38 129.344 33.188C129.208 32.996 128.992 32.9 128.696 32.9C128.432 32.9 128.16 32.984 127.88 33.152C127.608 33.312 127.288 33.568 126.92 33.92V37.88C126.92 37.96 126.88 38 126.8 38H126.02ZM136.529 33.728C136.289 33.728 136.117 33.668 136.013 33.548C135.909 33.42 135.857 33.256 135.857 33.056V32.936C135.857 32.736 135.909 32.576 136.013 32.456C136.117 32.328 136.289 32.264 136.529 32.264C136.769 32.264 136.941 32.328 137.045 32.456C137.149 32.576 137.201 32.736 137.201 32.936V33.056C137.201 33.256 137.149 33.42 137.045 33.548C136.941 33.668 136.769 33.728 136.529 33.728ZM136.529 38.144C136.289 38.144 136.117 38.084 136.013 37.964C135.909 37.836 135.857 37.672 135.857 37.472V37.352C135.857 37.152 135.909 36.992 136.013 36.872C136.117 36.744 136.289 36.68 136.529 36.68C136.769 36.68 136.941 36.744 137.045 36.872C137.149 36.992 137.201 37.152 137.201 37.352V37.472C137.201 37.672 137.149 37.836 137.045 37.964C136.941 38.084 136.769 38.144 136.529 38.144Z" fill="#535353"/>
<path d="M36 164C33.2311 164 30.5243 164.821 28.222 166.359C25.9197 167.898 24.1253 170.084 23.0657 172.642C22.0061 175.201 21.7288 178.016 22.269 180.731C22.8092 183.447 24.1426 185.942 26.1005 187.899C28.0584 189.857 30.553 191.191 33.2687 191.731C35.9845 192.271 38.7994 191.994 41.3576 190.934C43.9157 189.875 46.1022 188.08 47.6406 185.778C49.1789 183.476 50 180.769 50 178C49.9958 174.288 48.5194 170.73 45.8948 168.105C43.2702 165.481 39.7117 164.004 36 164ZM24 178C24.001 176.315 24.3579 174.65 25.0472 173.113C25.7365 171.576 26.7428 170.202 28 169.081V171C28 171.53 28.2107 172.039 28.5858 172.414C28.9609 172.789 29.4696 173 30 173H33.382C33.7537 173 34.118 172.897 34.4342 172.701C34.7504 172.506 35.0059 172.226 35.172 171.894L35.617 171H38V175H33.235C32.9251 175 32.6194 175.072 32.342 175.21L29.105 176.83C28.7732 176.996 28.4941 177.251 28.2989 177.567C28.1038 177.882 28.0003 178.246 28 178.617V182.322C28 182.722 28.1197 183.112 28.3438 183.443C28.5678 183.774 28.8859 184.031 29.257 184.179L33.106 185.719L33.784 189.785C31.0367 189.266 28.5563 187.805 26.7704 185.654C24.9844 183.503 24.0047 180.796 24 178ZM35.846 189.992L34.894 184.28L30 182.323V178.618L33.236 177H40V169H34.382L33.382 171H30V167.623C31.5224 166.737 33.2219 166.198 34.9768 166.045C36.7318 165.892 38.4988 166.128 40.1517 166.738C41.8046 167.347 43.3025 168.314 44.5382 169.569C45.7739 170.825 46.717 172.338 47.3 174H42V178L42.922 181.813L41 184.698V188.895C39.4332 189.622 37.7271 189.999 36 190C35.948 190 35.898 189.993 35.846 189.992ZM43 187.727V185.303L44.586 182.923C44.7406 182.691 44.8451 182.429 44.8928 182.155C44.9405 181.88 44.9304 181.598 44.863 181.328L44 177.877V176H47.82C48.211 178.211 47.9654 180.487 47.112 182.563C46.2586 184.639 44.8325 186.43 43 187.727Z" fill="black"/>
</svg>
