<svg width="172" height="214" viewBox="0 0 172 214" fill="none" xmlns="http://www.w3.org/2000/svg">
<rect width="172" height="214" rx="16" fill="#F7CCBC"/>
<path d="M145.34 175.06L123.34 167.06C123.161 166.995 122.968 166.983 122.783 167.025C122.598 167.066 122.428 167.159 122.294 167.293C122.159 167.428 122.066 167.597 122.025 167.783C121.983 167.968 121.996 168.161 122.06 168.34L130.06 190.34C130.13 190.533 130.258 190.7 130.426 190.818C130.594 190.936 130.794 191 131 191C131.2 191 131.396 190.94 131.562 190.828C131.728 190.715 131.856 190.556 131.93 190.37L135.77 180.77L145.37 176.93C145.56 176.858 145.723 176.73 145.838 176.563C145.954 176.396 146.015 176.198 146.015 175.995C146.015 175.792 145.954 175.594 145.838 175.427C145.723 175.26 145.56 175.132 145.37 175.06H145.34ZM134.63 179.06L134.23 179.22L134.07 179.62L131 187.2L124.67 169.67L142.2 176L134.63 179.06Z" fill="black"/>
<path d="M21.264 40C21.1253 40 21.056 39.9307 21.056 39.792V29.728C21.056 29.5893 21.1253 29.52 21.264 29.52H24.752C26.4267 29.52 27.6693 29.9093 28.48 30.688C29.2907 31.456 29.696 32.5973 29.696 34.112V35.184C29.696 36.784 29.2907 37.9893 28.48 38.8C27.68 39.6 26.4373 40 24.752 40H21.264ZM23.344 38.048H24.608C25.5787 38.048 26.288 37.8027 26.736 37.312C27.1947 36.8213 27.424 36.096 27.424 35.136V34.16C27.424 33.2747 27.1947 32.608 26.736 32.16C26.288 31.7013 25.5787 31.472 24.608 31.472H23.344V38.048ZM31.5728 40C31.4341 40 31.3648 39.9307 31.3648 39.792V32.288C31.3648 32.1493 31.4341 32.08 31.5728 32.08H33.3808C33.5194 32.08 33.5888 32.1493 33.5888 32.288V39.792C33.5888 39.9307 33.5194 40 33.3808 40H31.5728ZM32.4848 31.056C32.0901 31.056 31.7861 30.9547 31.5728 30.752C31.3594 30.5493 31.2528 30.2827 31.2528 29.952V29.664C31.2528 29.312 31.3594 29.04 31.5728 28.848C31.7861 28.6453 32.0901 28.544 32.4848 28.544C32.8901 28.544 33.1941 28.6453 33.3968 28.848C33.6101 29.04 33.7168 29.312 33.7168 29.664V29.952C33.7168 30.2827 33.6101 30.5493 33.3968 30.752C33.1941 30.9547 32.8901 31.056 32.4848 31.056ZM37.5244 40C37.407 40 37.327 39.9467 37.2844 39.84L34.7564 32.32C34.7137 32.16 34.7724 32.08 34.9324 32.08H36.8844C37.0124 32.08 37.0924 32.1387 37.1244 32.256L38.1324 35.904C38.2284 36.256 38.319 36.608 38.4044 36.96C38.4897 37.312 38.5697 37.6693 38.6444 38.032H38.6924C38.767 37.6693 38.847 37.312 38.9324 36.96C39.0284 36.608 39.1297 36.2507 39.2364 35.888L40.2444 32.256C40.2764 32.1387 40.3564 32.08 40.4844 32.08H42.4364C42.5857 32.08 42.639 32.16 42.5964 32.32L40.0524 39.84C40.0097 39.9467 39.9297 40 39.8124 40H37.5244ZM47.0548 40.192C45.8174 40.192 44.9001 39.9307 44.3028 39.408C43.7161 38.8747 43.4228 38.0907 43.4228 37.056V35.216C43.4228 34.128 43.7161 33.3013 44.3028 32.736C44.9001 32.1707 45.8068 31.888 47.0228 31.888C48.2068 31.888 49.0974 32.16 49.6948 32.704C50.3028 33.248 50.6068 34.048 50.6068 35.104V36.352C50.6068 36.4907 50.5374 36.56 50.3988 36.56H45.6308V37.04C45.6308 37.5307 45.7374 37.8987 45.9508 38.144C46.1748 38.3787 46.5374 38.496 47.0388 38.496C47.4228 38.496 47.7268 38.4373 47.9508 38.32C48.1748 38.192 48.2868 38.0053 48.2868 37.76C48.2868 37.6213 48.3561 37.552 48.4948 37.552H50.2388C50.3668 37.552 50.4361 37.6213 50.4468 37.76C50.4681 38.5707 50.1961 39.1787 49.6308 39.584C49.0654 39.9893 48.2068 40.192 47.0548 40.192ZM45.6308 35.216H48.4308V35.136C48.4308 34.6027 48.3188 34.2133 48.0948 33.968C47.8708 33.7227 47.5241 33.6 47.0548 33.6C46.5534 33.6 46.1908 33.728 45.9668 33.984C45.7428 34.2293 45.6308 34.6187 45.6308 35.152V35.216ZM52.4165 40C52.2778 40 52.2085 39.9307 52.2085 39.792V34.096C52.2085 33.7653 52.1978 33.456 52.1765 33.168C52.1658 32.8693 52.1445 32.5813 52.1125 32.304C52.0912 32.1547 52.1605 32.08 52.3205 32.08H53.9045C54.0218 32.08 54.0965 32.1387 54.1285 32.256C54.1712 32.4373 54.2032 32.6453 54.2245 32.88C54.2458 33.1147 54.2618 33.3333 54.2725 33.536L54.4325 34.512V39.792C54.4325 39.9307 54.3632 40 54.2245 40H52.4165ZM54.2725 35.376L54.1445 33.52C54.3578 33.2107 54.6032 32.9333 54.8805 32.688C55.1578 32.4427 55.4352 32.2507 55.7125 32.112C56.0005 31.9627 56.2672 31.888 56.5125 31.888C56.6832 31.888 56.8218 31.9093 56.9285 31.952C57.0352 31.984 57.0938 32.0587 57.1045 32.176C57.1045 32.4533 57.0992 32.7573 57.0885 33.088C57.0885 33.4187 57.0725 33.728 57.0405 34.016C57.0192 34.176 56.9392 34.24 56.8005 34.208C56.7365 34.1867 56.6565 34.1707 56.5605 34.16C56.4645 34.1493 56.3738 34.144 56.2885 34.144C56.0645 34.144 55.8352 34.192 55.6005 34.288C55.3658 34.384 55.1312 34.5227 54.8965 34.704C54.6725 34.8747 54.4645 35.0987 54.2725 35.376ZM60.9948 40.192C59.8748 40.192 59.0588 39.984 58.5468 39.568C58.0454 39.152 57.8214 38.5013 57.8748 37.616C57.8854 37.488 57.9548 37.424 58.0828 37.424H59.7788C59.9068 37.424 59.9708 37.488 59.9708 37.616C59.9708 37.9467 60.0508 38.192 60.2108 38.352C60.3814 38.512 60.6428 38.592 60.9948 38.592C61.3681 38.592 61.6454 38.5333 61.8268 38.416C62.0081 38.2987 62.0988 38.1173 62.0988 37.872C62.0988 37.68 62.0348 37.5253 61.9068 37.408C61.7788 37.28 61.5654 37.152 61.2668 37.024L59.4268 36.24C58.8934 36.016 58.5094 35.744 58.2747 35.424C58.0401 35.0933 57.9228 34.6667 57.9228 34.144C57.9228 33.3867 58.1681 32.8213 58.6588 32.448C59.1601 32.0747 59.9334 31.888 60.9788 31.888C62.0561 31.888 62.8508 32.0853 63.3628 32.48C63.8854 32.864 64.1468 33.44 64.1468 34.208C64.1468 34.3467 64.0774 34.416 63.9388 34.416H62.2588C62.1201 34.416 62.0508 34.3307 62.0508 34.16C62.0508 33.936 61.9654 33.7707 61.7948 33.664C61.6348 33.5467 61.3948 33.488 61.0748 33.488C60.7548 33.488 60.5201 33.5413 60.3708 33.648C60.2214 33.7547 60.1468 33.92 60.1468 34.144C60.1468 34.304 60.2001 34.432 60.3068 34.528C60.4134 34.624 60.6161 34.736 60.9148 34.864L62.7388 35.632C63.2934 35.856 63.6934 36.1333 63.9388 36.464C64.1948 36.7947 64.3228 37.232 64.3228 37.776C64.3228 38.576 64.0401 39.1787 63.4748 39.584C62.9094 39.9893 62.0828 40.192 60.9948 40.192ZM65.9165 40C65.7778 40 65.7085 39.9307 65.7085 39.792V32.288C65.7085 32.1493 65.7778 32.08 65.9165 32.08H67.7245C67.8632 32.08 67.9325 32.1493 67.9325 32.288V39.792C67.9325 39.9307 67.8632 40 67.7245 40H65.9165ZM66.8285 31.056C66.4338 31.056 66.1298 30.9547 65.9165 30.752C65.7032 30.5493 65.5965 30.2827 65.5965 29.952V29.664C65.5965 29.312 65.7032 29.04 65.9165 28.848C66.1298 28.6453 66.4338 28.544 66.8285 28.544C67.2338 28.544 67.5378 28.6453 67.7405 28.848C67.9538 29.04 68.0605 29.312 68.0605 29.664V29.952C68.0605 30.2827 67.9538 30.5493 67.7405 30.752C67.5378 30.9547 67.2338 31.056 66.8285 31.056ZM73.0841 40.192C72.4228 40.192 71.8895 40.096 71.4841 39.904C71.0895 39.7013 70.8015 39.392 70.6201 38.976C70.4495 38.5493 70.3641 37.9947 70.3641 37.312V33.936H69.2121C69.0735 33.936 69.0041 33.8667 69.0041 33.728V32.288C69.0041 32.1493 69.0735 32.08 69.2121 32.08H70.4281L70.6681 30.176C70.7001 30.0373 70.7748 29.968 70.8921 29.968H72.3801C72.5188 29.968 72.5881 30.0373 72.5881 30.176V32.08H74.6521C74.7908 32.08 74.8601 32.1493 74.8601 32.288V33.728C74.8601 33.8667 74.7908 33.936 74.6521 33.936H72.5881V37.168C72.5881 37.552 72.6628 37.8347 72.8121 38.016C72.9615 38.1973 73.2015 38.288 73.5321 38.288C73.7135 38.288 73.8948 38.272 74.0761 38.24C74.2681 38.1973 74.4548 38.144 74.6361 38.08C74.7961 38.016 74.8761 38.0693 74.8761 38.24V39.696C74.8761 39.8027 74.8228 39.8827 74.7161 39.936C74.5028 40.0107 74.2521 40.0693 73.9641 40.112C73.6761 40.1653 73.3828 40.192 73.0841 40.192ZM77.7564 42.96C77.5857 42.96 77.5324 42.88 77.5964 42.72L78.6364 39.952L75.7564 32.32C75.6924 32.16 75.7404 32.08 75.9004 32.08H77.8844C78.0017 32.08 78.0764 32.1387 78.1084 32.256L79.0844 35.168C79.191 35.5093 79.2924 35.8667 79.3884 36.24C79.4844 36.6133 79.575 36.9973 79.6604 37.392H79.7084C79.7937 36.9973 79.8844 36.6187 79.9804 36.256C80.0764 35.8827 80.1777 35.5253 80.2844 35.184L81.2444 32.256C81.2764 32.1387 81.3564 32.08 81.4844 32.08H83.4204C83.591 32.08 83.6444 32.16 83.5804 32.32L79.7404 42.8C79.7084 42.9067 79.6337 42.96 79.5164 42.96H77.7564Z" fill="black"/>
</svg>
