<?xml version="1.0" encoding="utf-8"?>
<!-- Generator: Adobe Illustrator 24.3.0, SVG Export Plug-In . SVG Version: 6.00 Build 0)  -->
<svg version="1.1" id="Layer_1" xmlns="http://www.w3.org/2000/svg" xmlns:xlink="http://www.w3.org/1999/xlink" x="0px" y="0px"
	 viewBox="0 0 2869 581" style="enable-background:new 0 0 2869 581;" xml:space="preserve">
<style type="text/css">
	.st0{fill:#198A84;}
	.st1{fill:#198A84;}
</style>
<path class="st0" d="M902.6,442.2c-3.1,0-4.7-1.6-4.7-4.7V202.4h-74.9c-3.1,0-4.7-1.6-4.7-4.7v-28.9c0-3.1,1.6-4.7,4.7-4.7h193.2
	c3.1,0,4.7,1.6,4.7,4.7v28.9c0,3.1-1.6,4.7-4.7,4.7h-75.3v235.1c0,3.1-1.6,4.7-4.7,4.7H902.6z M1140,442.2c-1.7,0-3-0.6-3.8-1.7
	c-0.6-1.1-1.1-2.5-1.7-4.2c-0.3-2.5-1-7.4-2.1-14.4c-0.9-7.1-1.4-13.7-1.7-19.9l-2.1-16.6v-84.5c0-13.3-2.7-22.6-8.1-28
	c-5.1-5.7-14.2-8.5-27.2-8.5c-23.8,0-35.6,8.3-35.3,25c0,3.1-1.4,4.7-4.3,4.7h-32.8c-3.1,0-4.8-2.5-5.1-7.6
	c-1.4-17.5,5-31.4,19.1-41.6c14.2-10.5,34-15.7,59.6-15.7c26.1,0,45.4,5.9,57.9,17.8c12.5,11.6,18.7,29.4,18.7,53.5V390
	c0,9.6,0.3,18.4,0.9,26.3c0.6,7.9,1.3,14.9,2.1,20.8c0.6,3.4-1,5.1-4.7,5.1H1140z M1058.7,447.3c-16.7,0-29.5-5-38.3-14.9
	c-8.8-10.2-13.2-24.8-13.2-43.7c0-14.7,2.8-26.7,8.5-36.1c5.7-9.3,14.9-16.6,27.7-21.6c13-5.1,30.4-8.5,51.9-10.2l40-3.4l-0.4,28.9
	l-38.3,3.4c-17.9,1.4-30.4,4.7-37.4,9.8c-6.8,5.1-10.2,13.6-10.2,25.5c0,9.1,1.8,15.8,5.5,20.4c3.7,4.5,9.4,6.8,17,6.8
	c8.8,0,18-3,27.7-8.9c9.6-5.9,22.1-16.8,37.4-32.7l0.8,32.7c-9.6,10.2-18.7,18.5-27.2,25c-8.2,6.5-16.6,11.3-25.1,14.4
	C1076.9,445.8,1068.1,447.3,1058.7,447.3z M1222.5,442.2c-3.1,0-4.7-1.6-4.7-4.7V157c0-3.1,1.6-4.7,4.7-4.7h33.2
	c3.1,0,4.7,1.6,4.7,4.7v280.6c0,3.1-1.6,4.7-4.7,4.7H1222.5z M1389.8,447.3c-28.9,0-50.9-6.5-65.9-19.5
	c-14.7-13-22.1-32.4-22.1-58.2v-56.5c0-27.4,7.4-48.2,22.1-62.4c14.7-14.4,36.6-21.6,65.5-21.6c28.7,0,50.3,6.9,65.1,20.8
	c14.7,13.9,22.1,34.1,22.1,60.7v33.1c0,3.1-1.4,4.7-4.3,4.7h-128.1V362c0,17.3,3.7,29.9,11.1,37.8s19.3,11.9,35.7,11.9
	c12.5,0,22.1-2,28.9-5.9c6.8-4,10.2-10,10.2-18.3c0-3.1,1.7-4.7,5.1-4.7h32.8c2.5,0,4.1,1.4,4.7,4.2c1.1,19-5.7,33.8-20.4,44.6
	C1437.6,442.1,1416.8,447.3,1389.8,447.3z M1344.3,316.2h90.2v-2.1c0-17-3.7-29.4-11.1-37.4c-7.4-7.9-18.6-11.9-33.6-11.9
	c-15.3,0-26.8,4.1-34.5,12.3c-7.4,8.2-11.1,20.5-11.1,36.9V316.2z M1657.2,442.2c-3.1,0-4.7-1.6-4.7-4.7V304.3
	c0-13-2.7-22.5-8.1-28.4c-5.1-6.2-13.2-9.3-24.3-9.3c-10.5,0-20.8,3.1-31.1,9.3c-10.2,5.9-22.4,16-36.6,30.1l-0.9-34.4
	c9.1-9.6,17.9-17.5,26.4-23.8c8.5-6.2,17.2-10.9,26-14c9.1-3.1,18.6-4.7,28.5-4.7c20.4,0,35.9,5.9,46.4,17.8
	c10.8,11.6,16.2,29.1,16.2,52.6v137.9c0,3.1-1.4,4.7-4.3,4.7H1657.2z M1522.3,442.2c-3.1,0-4.7-1.6-4.7-4.7V286.9
	c0-7.9-0.4-16.3-1.3-25c-0.6-9.1-1.1-16.3-1.7-21.6c-0.6-4,1-5.9,4.7-5.9h30.2c1.7,0,2.8,0.3,3.4,0.8c0.9,0.6,1.4,1.7,1.7,3.4
	c0.6,2.5,1.1,6.1,1.7,10.6c0.6,4.5,1.1,9.3,1.7,14.4c0.6,5.1,0.9,9.5,0.9,13.2l1.3,13.6v147.3c0,3.1-1.6,4.7-4.7,4.7H1522.3z
	 M1822.5,447.3c-15.6,0-27.9-2.4-37-7.2c-9.1-5.1-15.7-12.7-20-22.9c-4-10.5-6-23.5-6-39V270.3h-32.3c-2.8,0-4.3-1.6-4.3-4.7v-26.7
	c0-3.1,1.4-4.7,4.3-4.7h33.6l5.1-50.9c0.3-2.8,2-4.2,5.1-4.2h26c3.1,0,4.7,1.4,4.7,4.2l0.4,50.9h60.8c3.1,0,4.7,1.6,4.7,4.7v26.7
	c0,3.1-1.6,4.7-4.7,4.7H1802v106.1c0,12.5,2.1,21.4,6.4,26.7c4.5,5.1,12.2,7.6,23,7.6c5.4,0,10.8-0.6,16.2-1.7
	c5.7-1.4,10.6-3.1,14.9-5.1c1.7-0.6,3-0.4,3.8,0.4c1.1,0.6,1.7,1.6,1.7,3V435c0,2.5-1.1,4.2-3.4,5.1c-5.4,2-11.6,3.7-18.7,5.1
	C1839.1,446.6,1831.3,447.3,1822.5,447.3z"/>
<path class="st1" d="M1989.1,447.3c-10.5,0-21.8-1.6-34-4.7c-11.9-3.1-22.8-7.5-32.8-13.2l-0.9-19.9c10.2,5.4,20.7,9.6,31.5,12.7
	c11.1,3.1,21.8,4.7,32.3,4.7c18.7,0,33-5.4,43-16.1c9.9-10.8,14.9-25.9,14.9-45.4v-58.2c0-19-3.5-32.8-10.6-41.6
	c-7.1-9.1-17.9-13.6-32.3-13.6c-11.6,0-23.7,3.5-36.2,10.6c-12.5,7.1-26.8,18.8-43,35.2v-22.5c9.9-10.2,19.4-18.4,28.5-24.6
	c9.4-6.5,18.6-11.2,27.7-14c9.1-3.1,18.4-4.7,28.1-4.7c20.1,0,35.2,6.1,45.1,18.3c10.2,11.9,15.3,30.4,15.3,55.6v61.5
	c0,25.2-6.7,44.9-20,59C2032.3,440.4,2013.5,447.3,1989.1,447.3z M1906.6,520.8c-2,0-3-1-3-3V284.3c0-6.5-0.3-13.7-0.9-21.6
	c-0.3-7.9-0.9-15.4-1.7-22.5c0-2,1-3,3-3h15.7c2,0,3.1,0.8,3.4,2.5c0.6,3.7,1,7.8,1.3,12.3c0.6,4.2,0.9,8.5,0.9,12.7
	c0.3,4,0.4,7.5,0.4,10.6l0.4,12.3v230.1c0,2-0.8,3-2.5,3H1906.6z M2195.1,447.3c-26.7,0-47.2-6.7-61.7-19.9
	c-14.5-13.6-21.7-33.4-21.7-59.4v-56.5c0-26,7.2-45.7,21.7-59c14.5-13.6,35-20.4,61.7-20.4c26.9,0,47.7,6.8,62.1,20.4
	c14.5,13.3,21.7,33,21.7,59V368c0,25.8-7.2,45.4-21.7,59C2242.7,440.5,2222,447.3,2195.1,447.3z M2195.1,427
	c20.4,0,35.7-5.2,46-15.7c10.2-10.5,15.3-25.8,15.3-45.8v-51.4c0-20.1-5.1-35.4-15.3-45.8c-10.2-10.8-25.5-16.1-46-16.1
	c-20.1,0-35.3,5.4-45.5,16.1c-10.2,10.5-15.3,25.8-15.3,45.8v51.4c0,20.1,5.1,35.4,15.3,45.8C2159.8,421.7,2174.9,427,2195.1,427z
	 M2405.8,447.3c-26.7,0-46.9-6.4-60.8-19.1c-13.9-12.7-20.8-31.4-20.8-56v-59.8c0-26.3,6.8-46.3,20.4-59.8
	c13.6-13.6,33.6-20.4,60-20.4c26.7,0,46.7,6.8,60,20.4c13.6,13.3,20.4,33,20.4,59v28.4c0,1.7-0.9,2.5-2.5,2.5h-135.7v23.8
	c0,20.7,4.8,35.9,14.5,45.8c9.9,9.9,25.1,14.9,45.5,14.9c16.7,0,29.5-3.1,38.3-9.3c8.8-6.5,13.2-15.6,13.2-27.2c0-2,1.1-3,3.4-3
	h16.6c1.7,0,2.7,0.8,3,2.5c0.6,17.8-5.8,31.8-19.2,42C2448.9,442.2,2430.2,447.3,2405.8,447.3z M2346.7,323h115.7v-9.3
	c0-20.7-4.8-36.1-14.5-46.3c-9.6-10.2-24-15.3-43-15.3c-19.6,0-34.2,5.2-43.8,15.7c-9.6,10.2-14.5,25.5-14.5,45.8V323z
	 M2538.8,442.2c-2,0-3-1-3-3v-284c0-2,1-3,3-3h17c1.7,0,2.5,1,2.5,3v284c0,2-0.9,3-2.5,3H2538.8z"/>
<path class="st1" d="M736.7,289.4c0-126.6-102.9-229.2-229.7-229.2c-126.9,0-229.7,102.6-229.7,229.2c0,25.2,4.1,49.4,11.6,72
	c48.1-66.5,125.7-109.7,213.3-109.7c91.6,0,172.3,47.2,219.7,119C731.4,345.4,736.7,318.1,736.7,289.4z M308.3,404.5
	c7.5,12.9,16.2,25,26,36.1c9-19.8,21.5-38,37-53.7c34.7-35.1,81.7-54.9,130.8-54.9s96.1,19.7,130.8,54.9
	c17.4,17.6,30.9,38.3,40.1,60.9c10.3-10.7,19.5-22.4,27.5-34.9c-10.4-19.8-23.7-38.2-39.6-54.3c-42.1-42.7-99.3-66.7-158.8-66.7
	c-59.6,0-116.7,24-158.8,66.7C329.6,372.4,317.9,387.9,308.3,404.5z M365.3,469.9c10.8,8.5,22.4,15.9,34.6,22.4
	c4.7-18.2,14.1-35,27.5-48.5c19.8-20.1,46.7-31.4,74.7-31.4c28,0,54.9,11.3,74.7,31.4c14.4,14.6,24.2,33,28.5,52.8
	c12.5-5.9,24.4-12.9,35.5-20.9c-6.9-22.6-19.2-43.3-36-60.3c-27.3-27.6-64.2-43.1-102.8-43.1c-38.5,0-75.5,15.5-102.8,43.1
	C384,430.9,372.4,449.6,365.3,469.9z M437.1,507.8c22,7,45.5,10.8,69.9,10.8c21,0,41.3-2.8,60.6-8.1c-1.9-14.5-8.5-28-18.8-38.4
	c-12.4-12.6-29.2-19.6-46.7-19.6c-17.5,0-34.3,7.1-46.7,19.6C445.8,481.9,439.4,494.4,437.1,507.8z"/>
</svg>
