<svg width="2869" height="581" viewBox="0 0 2869 581" fill="none" xmlns="http://www.w3.org/2000/svg">
<path d="M785.369 479.725C781.452 479.725 779.492 477.77 779.492 473.861V178.564H685.461C681.545 178.564 679.584 176.61 679.584 172.701V136.455C679.584 132.546 681.545 130.592 685.461 130.592H928.017C931.933 130.592 933.894 132.546 933.894 136.455V172.701C933.894 176.61 931.933 178.564 928.017 178.564H833.452V473.861C833.452 477.77 831.492 479.725 827.575 479.725H785.369ZM1083.44 479.725C1081.3 479.725 1079.7 479.014 1078.63 477.593C1077.92 476.171 1077.21 474.394 1076.49 472.262C1076.14 469.064 1075.25 463.023 1073.82 454.139C1072.75 445.255 1072.04 436.905 1071.69 429.087L1069.01 408.299V302.227C1069.01 285.525 1065.63 273.799 1058.86 267.047C1052.45 259.94 1041.06 256.386 1024.67 256.386C994.752 256.386 979.974 266.869 980.327 287.835C980.327 291.744 978.548 293.698 974.984 293.698H933.846C929.93 293.698 927.793 290.5 927.435 284.104C925.656 262.072 933.67 244.66 951.477 231.867C969.289 218.719 994.218 212.145 1026.27 212.145C1059.05 212.145 1083.26 219.607 1098.93 234.532C1114.61 249.101 1122.44 271.489 1122.44 301.694V414.162C1122.44 426.245 1122.8 437.26 1123.51 447.21C1124.23 457.16 1125.11 465.866 1126.18 473.328C1126.9 477.593 1124.94 479.725 1120.3 479.725H1083.44ZM981.396 486.121C960.383 486.121 944.355 479.902 933.312 467.465C922.274 454.672 916.75 436.372 916.75 412.563C916.75 394.085 920.313 378.983 927.435 367.256C934.562 355.529 946.134 346.468 962.162 340.072C978.548 333.675 1000.28 329.411 1027.34 327.279L1077.56 323.015L1077.03 359.261L1028.95 363.525C1006.51 365.301 990.836 369.388 981.93 375.784C973.382 382.181 969.108 392.841 969.108 407.766C969.108 419.137 971.426 427.666 976.053 433.351C980.685 439.037 987.807 441.88 997.423 441.88C1008.47 441.88 1020.04 438.149 1032.15 430.686C1044.26 423.224 1059.93 409.543 1079.17 389.643L1080.23 430.686C1068.13 443.479 1056.73 453.962 1046.04 462.135C1035.71 470.308 1025.21 476.349 1014.52 480.258C1004.19 484.166 993.149 486.121 981.396 486.121ZM1187.1 479.725C1183.18 479.725 1181.23 477.77 1181.23 473.861V121.53C1181.23 117.622 1183.18 115.667 1187.1 115.667H1228.78C1232.69 115.667 1234.65 117.622 1234.65 121.53V473.861C1234.65 477.77 1232.69 479.725 1228.78 479.725H1187.1ZM1397.19 486.121C1360.86 486.121 1333.26 477.948 1314.38 461.602C1295.86 445.255 1286.6 420.914 1286.6 388.577V317.684C1286.6 283.215 1295.86 257.097 1314.38 239.329C1332.9 221.206 1360.33 212.145 1396.66 212.145C1432.64 212.145 1459.88 220.851 1478.4 238.263C1496.92 255.676 1506.18 281.083 1506.18 314.486V356.062C1506.18 359.971 1504.4 361.926 1500.84 361.926H1340.03V378.983C1340.03 400.659 1344.66 416.472 1353.92 426.422C1363.18 436.372 1378.14 441.347 1398.79 441.347C1414.47 441.347 1426.58 438.859 1435.12 433.884C1443.67 428.91 1447.95 421.269 1447.95 410.964C1447.95 407.056 1450.08 405.101 1454.36 405.101H1495.5C1498.7 405.101 1500.66 406.878 1501.37 410.431C1502.8 434.24 1494.25 452.896 1475.73 466.399C1457.21 479.547 1431.03 486.121 1397.19 486.121ZM1340.03 321.416H1453.29V318.75C1453.29 297.429 1448.66 281.794 1439.4 271.844C1430.14 261.894 1416.07 256.919 1397.19 256.919C1377.96 256.919 1363.53 262.072 1353.92 272.377C1344.66 282.682 1340.03 298.14 1340.03 318.75V321.416ZM1732.93 479.725C1729.01 479.725 1727.06 477.77 1727.06 473.861V306.491C1727.06 290.144 1723.67 278.24 1716.91 270.778C1710.5 262.96 1700.34 259.051 1686.45 259.051C1673.27 259.051 1660.27 262.96 1647.45 270.778C1634.63 278.24 1619.31 290.856 1601.51 308.623L1600.44 265.448C1611.83 253.366 1622.88 243.416 1633.56 235.598C1644.25 227.78 1655.11 221.917 1666.15 218.008C1677.55 214.1 1689.48 212.145 1701.95 212.145C1727.59 212.145 1747 219.607 1760.18 234.532C1773.72 249.101 1780.48 271.134 1780.48 300.628V473.861C1780.48 477.77 1778.7 479.725 1775.14 479.725H1732.93ZM1563.57 479.725C1559.65 479.725 1557.7 477.77 1557.7 473.861V284.637C1557.7 274.687 1557.16 264.204 1556.09 253.188C1555.38 241.817 1554.67 232.756 1553.96 226.004C1553.24 221.029 1555.2 218.541 1559.83 218.541H1597.77C1599.9 218.541 1601.32 218.897 1602.04 219.607C1603.11 220.318 1603.82 221.739 1604.18 223.872C1604.89 227.07 1605.6 231.511 1606.31 237.197C1607.02 242.883 1607.74 248.924 1608.45 255.32C1609.16 261.717 1609.52 267.224 1609.52 271.844L1611.12 288.901V473.861C1611.12 477.77 1609.16 479.725 1605.25 479.725H1563.57ZM1940.47 486.121C1920.88 486.121 1905.38 483.1 1893.99 477.06C1882.59 470.663 1874.22 461.069 1868.88 448.276C1863.89 435.128 1861.4 418.782 1861.4 399.238V263.849H1820.79C1817.23 263.849 1815.45 261.894 1815.45 257.985V224.405C1815.45 220.496 1817.23 218.541 1820.79 218.541H1863L1869.41 154.578C1869.77 151.024 1871.91 149.248 1875.82 149.248H1908.41C1912.33 149.248 1914.29 151.024 1914.29 154.578L1914.82 218.541H1991.22C1995.14 218.541 1997.1 220.496 1997.1 224.405V257.985C1997.1 261.894 1995.14 263.849 1991.22 263.849H1914.82V397.106C1914.82 412.741 1917.5 423.934 1922.84 430.686C1928.54 437.083 1938.16 440.281 1951.69 440.281C1958.46 440.281 1965.22 439.57 1971.99 438.149C1979.11 436.372 1985.35 434.24 1990.69 431.752C1992.83 431.042 1994.43 431.219 1995.5 432.285C1996.93 432.996 1997.64 434.24 1997.64 436.017V470.663C1997.64 473.862 1996.21 475.994 1993.36 477.06C1986.59 479.547 1978.76 481.679 1969.85 483.456C1961.31 485.233 1951.51 486.121 1940.47 486.121Z" fill="white"/>
<path d="M2149.73 486.121C2136.54 486.121 2122.3 484.166 2106.98 480.258C2092.02 476.349 2078.31 470.841 2065.85 463.734L2064.78 438.682C2077.6 445.434 2090.78 450.764 2104.31 454.673C2118.2 458.581 2131.74 460.536 2144.92 460.536C2168.42 460.536 2186.41 453.784 2198.88 440.281C2211.34 426.778 2217.58 407.766 2217.58 383.247V310.222C2217.58 286.413 2213.13 269.001 2204.22 257.985C2195.31 246.614 2181.78 240.928 2163.62 240.928C2149.01 240.928 2133.87 245.37 2118.2 254.254C2102.53 263.138 2084.54 277.885 2064.24 298.495V270.245C2076.71 257.452 2088.64 247.147 2100.04 239.329C2111.79 231.156 2123.37 225.293 2134.77 221.739C2146.16 217.831 2157.92 215.876 2170.03 215.876C2195.31 215.876 2214.19 223.516 2226.66 238.796C2239.48 253.721 2245.89 276.997 2245.89 308.623V385.912C2245.89 417.538 2237.52 442.235 2220.78 460.003C2204.04 477.415 2180.35 486.121 2149.73 486.121ZM2046.08 578.335C2043.58 578.335 2042.34 577.093 2042.34 574.604V281.439C2042.34 273.266 2041.98 264.204 2041.27 254.254C2040.91 244.304 2040.2 234.888 2039.13 226.004C2039.13 223.516 2040.38 222.273 2042.87 222.273H2062.64C2065.14 222.273 2066.56 223.339 2066.91 225.471C2067.62 230.09 2068.16 235.243 2068.52 240.928C2069.23 246.259 2069.59 251.589 2069.59 256.919C2069.94 261.894 2070.12 266.336 2070.12 270.245L2070.65 285.703V574.604C2070.65 577.093 2069.59 578.335 2067.45 578.335H2046.08ZM2408.39 486.121C2374.91 486.121 2349.09 477.77 2330.93 461.069C2312.76 444.012 2303.68 419.137 2303.68 386.445V315.552C2303.68 282.86 2312.76 258.163 2330.93 241.461C2349.09 224.405 2374.91 215.876 2408.39 215.876C2442.23 215.876 2468.23 224.405 2486.4 241.461C2504.56 258.163 2513.64 282.86 2513.64 315.552V386.445C2513.64 418.782 2504.56 443.479 2486.4 460.536C2468.23 477.593 2442.23 486.121 2408.39 486.121ZM2408.39 460.536C2434.04 460.536 2453.27 453.962 2466.1 440.814C2478.92 427.666 2485.33 408.477 2485.33 383.247V318.75C2485.33 293.521 2478.92 274.332 2466.1 261.184C2453.27 247.68 2434.04 240.928 2408.39 240.928C2383.1 240.928 2364.05 247.68 2351.23 261.184C2338.41 274.332 2331.99 293.521 2331.99 318.75V383.247C2331.99 408.477 2338.41 427.666 2351.23 440.814C2364.05 453.962 2383.1 460.536 2408.39 460.536ZM2673.01 486.121C2639.53 486.121 2614.07 478.126 2596.61 462.135C2579.16 446.144 2570.43 422.691 2570.43 391.775V316.618C2570.43 283.571 2578.98 258.518 2596.08 241.461C2613.17 224.405 2638.28 215.876 2671.41 215.876C2704.89 215.876 2730 224.405 2746.74 241.461C2763.84 258.163 2772.38 282.86 2772.38 315.552V351.265C2772.38 353.397 2771.31 354.463 2769.18 354.463H2598.75V384.313C2598.75 410.254 2604.81 429.443 2616.91 441.88C2629.38 454.317 2648.43 460.536 2674.08 460.536C2695.1 460.536 2711.12 456.627 2722.16 448.809C2733.21 440.636 2738.73 429.265 2738.73 414.695C2738.73 412.208 2740.15 410.964 2743 410.964H2763.84C2765.97 410.964 2767.22 412.03 2767.58 414.162C2768.29 436.55 2760.28 454.139 2743.53 466.932C2727.15 479.725 2703.65 486.121 2673.01 486.121ZM2598.75 329.944H2744.07V318.217C2744.07 292.277 2738.01 272.91 2725.9 260.117C2713.8 247.325 2695.81 240.928 2671.94 240.928C2647.37 240.928 2629.02 247.502 2616.91 260.65C2604.81 273.443 2598.75 292.632 2598.75 318.217V329.944ZM2840.09 479.725C2837.6 479.725 2836.35 478.481 2836.35 475.994V119.398C2836.35 116.911 2837.6 115.667 2840.09 115.667H2861.46C2863.59 115.667 2864.66 116.911 2864.66 119.398V475.994C2864.66 478.481 2863.59 479.725 2861.46 479.725H2840.09Z" fill="white"/>
<path d="M577.006 287.835C577.006 128.868 447.839 0 288.502 0C129.167 0 0 128.868 0 287.835C0 319.422 5.11556 349.813 14.5387 378.247C74.9172 294.742 172.396 240.504 282.399 240.504C397.437 240.504 498.788 299.814 558.322 389.892C570.381 358.169 577.006 323.777 577.006 287.835ZM38.9652 432.36C48.3996 448.539 59.3696 463.713 71.6753 477.69C83.0365 452.873 98.6824 430.019 118.141 410.304C161.706 366.168 220.791 341.37 282.399 341.37C344.007 341.37 403.092 366.168 446.656 410.304C468.457 432.391 485.475 458.418 497.04 486.731C509.924 473.292 521.517 458.607 531.617 442.877C518.589 417.973 501.885 394.939 481.853 374.643C428.956 321.047 357.209 290.938 282.399 290.938C207.588 290.938 135.843 321.047 82.9451 374.643C65.7642 392.05 51.0318 411.472 38.9652 432.36ZM110.558 514.411C124.119 525.026 138.666 534.44 154.023 542.526C159.951 519.683 171.769 498.617 188.538 481.627C213.431 456.406 247.194 442.236 282.399 442.236C317.603 442.236 351.367 456.406 376.261 481.627C394.356 499.962 406.685 523.047 412.071 547.99C427.765 540.559 442.676 531.753 456.656 521.734C447.945 493.4 432.551 467.337 411.457 445.965C377.229 411.287 330.805 391.803 282.399 391.803C233.992 391.803 187.569 411.287 153.34 445.965C134.077 465.483 119.566 488.912 110.558 514.411ZM200.706 562.078C228.388 570.899 257.886 575.67 288.502 575.67C314.852 575.67 340.368 572.125 364.621 565.521C362.212 547.366 353.992 530.389 341.062 517.288C325.503 501.525 304.401 492.67 282.399 492.67C260.396 492.67 239.294 501.525 223.735 517.288C211.627 529.557 203.649 545.223 200.706 562.078Z" fill="white"/>
</svg>
