<svg width="1440" height="77" viewBox="0 0 1440 77" fill="none" xmlns="http://www.w3.org/2000/svg">
<path d="M22.0033 40.9006L20.6376 41.0234V42.3946V73.8878H19.9805V42.3946V41.0225L18.6139 40.9005C9.03397 40.0451 1.5 31.9359 1.5 22.0476C1.5 11.5823 9.93277 3.11206 20.3059 3.11206C30.6797 3.11206 39.1181 11.5829 39.1181 22.0476C39.1181 31.9352 31.5848 40.0392 22.0033 40.9006Z" stroke="#EE7B44" stroke-opacity="0.1" stroke-width="3"/>
<path d="M71.1368 42.1135H71.7036L104.447 42.0284V42.1135C104.447 60.3643 89.6631 75.3878 71.7036 75.3878C53.7442 75.3878 38.9604 60.3708 38.9604 42.1135V42.0284L71.0917 42.1135L48.0819 1.61206H94.1465L71.1368 42.1135Z" stroke="#042A2B" stroke-opacity="0.1" stroke-width="3" stroke-miterlimit="10"/>
<path d="M150.568 37.4393L149.507 38.5L150.568 39.5606L180.246 69.2384L176.218 73.2665L146.54 43.5887L145.479 42.5282L144.419 43.5886L114.733 73.2659L110.712 69.2392L140.39 39.5606L141.451 38.5L140.39 37.4393L110.712 7.76074L114.733 3.73398L144.419 33.4113L145.479 34.4717L146.54 33.4112L176.218 3.73338L180.246 7.76149L150.568 37.4393Z" stroke="#DC393A" stroke-opacity="0.1" stroke-width="3"/>
<path d="M244.655 64.7944L243.657 63.9049L242.659 64.7951C236.432 70.3506 228.227 73.7247 219.237 73.7247C199.811 73.7247 184.008 57.9213 184.008 38.5044C184.008 19.0783 199.811 3.27518 219.237 3.27518C228.226 3.27518 236.431 6.65766 242.66 12.2055L243.657 13.0936L244.654 12.2062C250.892 6.65743 259.098 3.27518 268.078 3.27518C287.495 3.27518 303.298 19.0781 303.298 38.5044C303.298 57.9215 287.495 73.7247 268.078 73.7247C259.097 73.7247 250.892 70.3508 244.655 64.7944Z" stroke="#5EB1BE" stroke-opacity="0.1" stroke-width="3"/>
<path d="M327.054 36.0993L325.688 35.9765V34.6054V3.11206H325.031V34.6054V35.9774L323.664 36.0994C314.084 36.9548 306.55 45.064 306.55 54.9523C306.55 65.4176 314.983 73.8878 325.356 73.8878C335.73 73.8878 344.168 65.417 344.168 54.9523C344.168 45.0647 336.635 36.9607 327.054 36.0993Z" stroke="#EE7B44" stroke-opacity="0.1" stroke-width="3"/>
<path d="M376.187 34.8864H376.754L409.497 34.9715V34.8864C409.497 16.6356 394.713 1.61206 376.754 1.61206C358.794 1.61206 344.011 16.6291 344.011 34.8864V34.9715L376.142 34.8864L353.132 75.3878H399.197L376.187 34.8864Z" stroke="#042A2B" stroke-opacity="0.1" stroke-width="3" stroke-miterlimit="10"/>
<path d="M455.618 39.5606L454.558 38.5L455.618 37.4393L485.296 7.7615L481.268 3.73338L451.59 33.4112L450.53 34.4717L449.469 33.4113L419.783 3.73398L415.762 7.76075L445.441 37.4393L446.501 38.5L445.441 39.5606L415.762 69.2392L419.783 73.2659L449.469 43.5886L450.53 42.5282L451.59 43.5887L481.268 73.2665L485.296 69.2384L455.618 39.5606Z" stroke="#DC393A" stroke-opacity="0.1" stroke-width="3"/>
<path d="M549.705 12.2055L548.707 13.095L547.709 12.2048C541.482 6.64935 533.278 3.27525 524.287 3.27525C504.861 3.27525 489.058 19.0786 489.058 38.4955C489.058 57.9216 504.861 73.7247 524.287 73.7247C533.277 73.7247 541.482 70.3423 547.71 64.7944L548.707 63.9063L549.705 64.7937C555.943 70.3425 564.148 73.7247 573.128 73.7247C592.545 73.7247 608.348 57.9218 608.348 38.4955C608.348 19.0784 592.545 3.27525 573.128 3.27525C564.147 3.27525 555.942 6.64912 549.705 12.2055Z" stroke="#5EB1BE" stroke-opacity="0.1" stroke-width="3"/>
<path d="M632.104 40.9006L630.739 41.0234V42.3946V73.8878H630.082V42.3946V41.0225L628.715 40.9005C619.135 40.0451 611.601 31.9359 611.601 22.0476C611.601 11.5823 620.034 3.11206 630.407 3.11206C640.781 3.11206 649.219 11.5829 649.219 22.0476C649.219 31.9352 641.686 40.0392 632.104 40.9006Z" stroke="#EE7B44" stroke-opacity="0.1" stroke-width="3"/>
<path d="M681.238 42.1135H681.805L714.548 42.0284V42.1135C714.548 60.3643 699.764 75.3878 681.805 75.3878C663.845 75.3878 649.062 60.3708 649.062 42.1135V42.0284L681.193 42.1135L658.183 1.61206H704.248L681.238 42.1135Z" stroke="#042A2B" stroke-opacity="0.1" stroke-width="3" stroke-miterlimit="10"/>
<path d="M760.669 37.4393L759.608 38.5L760.669 39.5606L790.347 69.2384L786.319 73.2665L756.641 43.5887L755.58 42.5282L754.52 43.5886L724.834 73.2659L720.813 69.2392L750.492 39.5606L751.552 38.5L750.492 37.4393L720.813 7.76074L724.834 3.73398L754.52 33.4113L755.58 34.4717L756.641 33.4112L786.319 3.73338L790.347 7.76149L760.669 37.4393Z" stroke="#DC393A" stroke-opacity="0.1" stroke-width="3"/>
<path d="M854.756 64.7944L853.758 63.9049L852.76 64.7951C846.533 70.3506 838.328 73.7247 829.338 73.7247C809.912 73.7247 794.109 57.9213 794.109 38.5044C794.109 19.0783 809.912 3.27518 829.338 3.27518C838.328 3.27518 846.532 6.65766 852.761 12.2055L853.758 13.0936L854.755 12.2062C860.993 6.65743 869.199 3.27518 878.179 3.27518C897.596 3.27518 913.399 19.0781 913.399 38.5044C913.399 57.9215 897.596 73.7247 878.179 73.7247C869.198 73.7247 860.993 70.3508 854.756 64.7944Z" stroke="#5EB1BE" stroke-opacity="0.1" stroke-width="3"/>
<path d="M1197.95 36.0993L1199.31 35.9765V34.6054V3.11206H1199.97V34.6054V35.9774L1201.34 36.0994C1210.92 36.9548 1218.45 45.064 1218.45 54.9523C1218.45 65.4176 1210.02 73.8878 1199.64 73.8878C1189.27 73.8878 1180.83 65.417 1180.83 54.9523C1180.83 45.0647 1188.36 36.9607 1197.95 36.0993Z" stroke="#EE7B44" stroke-opacity="0.1" stroke-width="3"/>
<path d="M1148.81 34.8864H1148.25L1115.5 34.9715V34.8864C1115.5 16.6356 1130.29 1.61206 1148.25 1.61206C1166.21 1.61206 1180.99 16.6291 1180.99 34.8864V34.9715L1148.86 34.8864L1171.87 75.3878H1125.8L1148.81 34.8864Z" stroke="#042A2B" stroke-opacity="0.1" stroke-width="3" stroke-miterlimit="10"/>
<path d="M1069.38 39.5606L1070.44 38.5L1069.38 37.4393L1039.7 7.7615L1043.73 3.73338L1073.41 33.4112L1074.47 34.4717L1075.53 33.4113L1105.22 3.73398L1109.24 7.76075L1079.56 37.4393L1078.5 38.5L1079.56 39.5606L1109.24 69.2392L1105.22 73.2659L1075.53 43.5886L1074.47 42.5282L1073.41 43.5887L1043.73 73.2665L1039.7 69.2384L1069.38 39.5606Z" stroke="#DC393A" stroke-opacity="0.1" stroke-width="3"/>
<path d="M975.295 12.2055L976.293 13.095L977.291 12.2048C983.518 6.64935 991.722 3.27525 1000.71 3.27525C1020.14 3.27525 1035.94 19.0786 1035.94 38.4955C1035.94 57.9216 1020.14 73.7247 1000.71 73.7247C991.723 73.7247 983.518 70.3423 977.29 64.7944L976.293 63.9063L975.295 64.7937C969.057 70.3425 960.852 73.7247 951.872 73.7247C932.455 73.7247 916.652 57.9218 916.652 38.4955C916.652 19.0784 932.455 3.27525 951.872 3.27525C960.853 3.27525 969.058 6.64912 975.295 12.2055Z" stroke="#5EB1BE" stroke-opacity="0.1" stroke-width="3"/>
<path d="M1242.2 40.9006L1240.84 41.0234V42.3946V73.8878H1240.18V42.3946V41.0225L1238.82 40.9005C1229.24 40.0451 1221.7 31.9359 1221.7 22.0476C1221.7 11.5823 1230.13 3.11206 1240.51 3.11206C1250.88 3.11206 1259.32 11.5829 1259.32 22.0476C1259.32 31.9352 1251.79 40.0392 1242.2 40.9006Z" stroke="#EE7B44" stroke-opacity="0.1" stroke-width="3"/>
<path d="M1291.34 42.1135H1291.91L1324.65 42.0284V42.1135C1324.65 60.3643 1309.86 75.3878 1291.91 75.3878C1273.95 75.3878 1259.16 60.3708 1259.16 42.1135V42.0284L1291.29 42.1135L1268.28 1.61206H1314.35L1291.34 42.1135Z" stroke="#042A2B" stroke-opacity="0.1" stroke-width="3" stroke-miterlimit="10"/>
<path d="M1370.77 37.4393L1369.71 38.5L1370.77 39.5606L1400.45 69.2384L1396.42 73.2665L1366.74 43.5887L1365.68 42.5282L1364.62 43.5886L1334.93 73.2659L1330.91 69.2392L1360.59 39.5606L1361.65 38.5L1360.59 37.4393L1330.91 7.76074L1334.93 3.73398L1364.62 33.4113L1365.68 34.4717L1366.74 33.4112L1396.42 3.73338L1400.45 7.76149L1370.77 37.4393Z" stroke="#DC393A" stroke-opacity="0.1" stroke-width="3"/>
<path d="M1464.86 64.7944L1463.86 63.9049L1462.86 64.7951C1456.63 70.3506 1448.43 73.7247 1439.44 73.7247C1420.01 73.7247 1404.21 57.9213 1404.21 38.5044C1404.21 19.0783 1420.01 3.27518 1439.44 3.27518C1448.43 3.27518 1456.63 6.65766 1462.86 12.2055L1463.86 13.0936L1464.86 12.2062C1471.09 6.65743 1479.3 3.27518 1488.28 3.27518C1507.7 3.27518 1523.5 19.0781 1523.5 38.5044C1523.5 57.9215 1507.7 73.7247 1488.28 73.7247C1479.3 73.7247 1471.09 70.3508 1464.86 64.7944Z" stroke="#5EB1BE" stroke-opacity="0.1" stroke-width="3"/>
</svg>
