<svg width="29" height="28" viewBox="0 0 29 28" fill="none" xmlns="http://www.w3.org/2000/svg">
<path d="M16 28.0001C15.8734 28.0004 15.7478 27.9766 15.63 27.9301C15.4662 27.8648 15.3225 27.7573 15.2136 27.6185C15.1048 27.4798 15.0345 27.3147 15.01 27.1401L14.01 20.1401L16.01 19.8601L16.76 25.1301L20 22.5201V15.0001C19.9992 14.8685 20.0245 14.738 20.0742 14.6162C20.124 14.4943 20.1973 14.3835 20.29 14.2901L24.36 10.2201C25.1986 9.38711 25.8638 8.39613 26.3169 7.30445C26.7701 6.21276 27.0023 5.04206 27 3.86006V2.00006H25.14C23.958 1.99782 22.7873 2.22999 21.6956 2.68314C20.6039 3.13629 19.613 3.80142 18.78 4.64006L14.71 8.71006C14.6166 8.80274 14.5057 8.87607 14.3839 8.92583C14.2621 8.9756 14.1316 9.00082 14 9.00006H6.48L3.87 12.2601L9.14 13.0101L8.86 15.0101L1.86 14.0101C1.68535 13.9856 1.52027 13.9153 1.38153 13.8064C1.24279 13.6975 1.13531 13.5539 1.07 13.3901C1.00388 13.2251 0.982929 13.0455 1.00929 12.8697C1.03566 12.6939 1.10839 12.5284 1.22 12.3901L5.22 7.39006C5.31212 7.27037 5.43016 7.1731 5.56525 7.10556C5.70034 7.03801 5.84898 7.00194 6 7.00006H13.59L17.36 3.22006C18.3792 2.19517 19.5917 1.3828 20.9272 0.830052C22.2627 0.277309 23.6946 -0.00480712 25.14 6.19679e-05H27C27.5304 6.19679e-05 28.0391 0.210776 28.4142 0.585848C28.7893 0.960921 29 1.46963 29 2.00006V3.86006C29.0049 5.30543 28.7228 6.73738 28.17 8.07289C27.6173 9.4084 26.8049 10.6209 25.78 11.6401L22 15.4101V23.0001C21.9993 23.1503 21.9648 23.2984 21.899 23.4334C21.8332 23.5685 21.7379 23.6869 21.62 23.7801L16.62 27.7801C16.4441 27.9212 16.2256 27.9988 16 28.0001Z" fill="#3A1BFF"/>
</svg>
