<svg width="1130" height="1130" viewBox="0 0 1130 1130" fill="#198A84" xmlns="http://www.w3.org/2000/svg">
<g opacity="0.4">
<path d="M1129.07 564.535C1129.07 252.75 876.318 0 564.533 0C252.75 0 0 252.75 0 564.535C0 626.486 10.01 686.093 28.4489 741.861C146.595 578.081 337.341 471.704 552.59 471.704C777.693 471.704 976.014 588.029 1092.51 764.699C1116.11 702.483 1129.07 635.028 1129.07 564.535ZM76.246 847.994C94.7068 879.726 116.173 909.486 140.253 936.898C162.483 888.226 193.099 843.402 231.176 804.734C316.422 718.169 432.038 669.533 552.59 669.533C673.143 669.533 788.759 718.169 874.004 804.734C916.663 848.054 949.964 899.101 972.594 954.632C997.805 928.272 1020.49 899.471 1040.25 868.62C1014.76 819.775 982.074 774.598 942.876 734.792C839.368 629.673 698.977 570.62 552.59 570.62C406.202 570.62 265.813 629.673 162.305 734.792C128.685 768.932 99.8575 807.026 76.246 847.994ZM216.337 1008.92C242.872 1029.74 271.337 1048.2 301.387 1064.07C312.989 1019.26 336.112 977.943 368.925 944.62C417.636 895.154 483.702 867.364 552.59 867.364C621.477 867.364 687.544 895.154 736.256 944.62C771.665 980.582 795.79 1025.86 806.329 1074.78C837.037 1060.2 866.215 1042.93 893.572 1023.28C876.527 967.711 846.402 916.594 805.128 874.676C738.151 806.662 647.311 768.447 552.59 768.447C457.87 768.447 367.029 806.662 300.052 874.676C262.358 912.957 233.963 958.908 216.337 1008.92ZM392.735 1102.41C446.904 1119.71 504.625 1129.07 564.533 1129.07C616.094 1129.07 666.022 1122.12 713.479 1109.17C708.765 1073.55 692.681 1040.26 667.379 1014.56C636.935 983.646 595.644 966.28 552.59 966.28C509.535 966.28 468.244 983.646 437.798 1014.56C414.106 1038.63 398.495 1069.36 392.735 1102.41Z" fill="#198A84" fill-opacity="0.1"/>
</g>
</svg>
