<svg width="163" height="33" viewBox="0 0 163 33" fill="none" xmlns="http://www.w3.org/2000/svg">
<g clip-path="url(#clip0_1727_674)">
<path d="M44.62 27.2477C44.3974 27.2477 44.2861 27.1367 44.2861 26.9147V10.1422H38.9438C38.7213 10.1422 38.6099 10.0312 38.6099 9.80919V7.75046C38.6099 7.52844 38.7213 7.41745 38.9438 7.41745H52.7244C52.9469 7.41745 53.0583 7.52844 53.0583 7.75046V9.80919C53.0583 10.0312 52.9469 10.1422 52.7244 10.1422H47.3518V26.9147C47.3518 27.1367 47.2404 27.2477 47.0179 27.2477H44.62ZM61.5546 27.2477C61.433 27.2477 61.3421 27.2073 61.2814 27.1266C61.241 27.0459 61.2007 26.9449 61.1598 26.8238C61.1399 26.6422 61.0893 26.2991 61.0081 25.7945C60.9473 25.2899 60.9069 24.8156 60.8871 24.3716L60.7348 23.1908V17.1661C60.7348 16.2174 60.5428 15.5514 60.1581 15.1679C59.794 14.7642 59.1468 14.5624 58.2157 14.5624C56.5159 14.5624 55.6763 15.1578 55.6963 16.3486C55.6963 16.5707 55.5953 16.6816 55.3928 16.6816H53.0556C52.8331 16.6816 52.7117 16.5 52.6913 16.1367C52.5903 14.8853 53.0456 13.8964 54.0573 13.1697C55.0692 12.4229 56.4855 12.0496 58.3066 12.0496C60.1689 12.0496 61.5444 12.4734 62.4347 13.3211C63.3255 14.1486 63.7704 15.4202 63.7704 17.1358V23.5238C63.7704 24.2101 63.7908 24.8358 63.8312 25.4009C63.8721 25.9661 63.9221 26.4606 63.9829 26.8844C64.0238 27.1266 63.9124 27.2477 63.6488 27.2477H61.5546ZM55.7571 27.611C54.5632 27.611 53.6526 27.2578 53.0252 26.5514C52.3981 25.8248 52.0843 24.7853 52.0843 23.433C52.0843 22.3835 52.2867 21.5257 52.6913 20.8596C53.0962 20.1936 53.7537 19.6789 54.6643 19.3156C55.5953 18.9523 56.83 18.7101 58.3673 18.589L61.2206 18.3468L61.1905 20.4055L58.4588 20.6477C57.1839 20.7486 56.2934 20.9807 55.7874 21.344C55.3018 21.7074 55.0589 22.3128 55.0589 23.1606C55.0589 23.8064 55.1906 24.2908 55.4535 24.6137C55.7167 24.9367 56.1213 25.0982 56.6676 25.0982C57.2953 25.0982 57.9526 24.8863 58.6406 24.4624C59.3286 24.0385 60.2189 23.2615 61.312 22.1312L61.3723 24.4624C60.6848 25.189 60.0371 25.7844 59.4298 26.2486C58.8429 26.7129 58.2463 27.056 57.639 27.278C57.0521 27.5 56.4248 27.611 55.7571 27.611ZM67.444 27.2477C67.2213 27.2477 67.1105 27.1367 67.1105 26.9147V6.90274C67.1105 6.68077 67.2213 6.56973 67.444 6.56973H69.812C70.0342 6.56973 70.1455 6.68077 70.1455 6.90274V26.9147C70.1455 27.1367 70.0342 27.2477 69.812 27.2477H67.444ZM79.3801 27.611C77.316 27.611 75.748 27.1468 74.6753 26.2184C73.6231 25.2899 73.097 23.9073 73.097 22.0706V18.044C73.097 16.0862 73.6231 14.6028 74.6753 13.5936C75.7275 12.5642 77.2859 12.0496 79.35 12.0496C81.3942 12.0496 82.9418 12.544 83.994 13.533C85.0462 14.5221 85.5723 15.9651 85.5723 17.8624V20.2238C85.5723 20.4459 85.4711 20.5569 85.2689 20.5569H76.1326V21.5257C76.1326 22.7569 76.3956 23.655 76.9217 24.2202C77.4478 24.7853 78.2978 25.0679 79.471 25.0679C80.3618 25.0679 81.0499 24.9266 81.5351 24.644C82.0208 24.3615 82.264 23.9275 82.264 23.3422C82.264 23.1202 82.385 23.0092 82.6282 23.0092H84.9655C85.1473 23.0092 85.2587 23.1101 85.299 23.3119C85.3802 24.6642 84.8945 25.7239 83.8423 26.4908C82.7901 27.2376 81.3027 27.611 79.3801 27.611ZM76.1326 18.256H82.5674V18.1046C82.5674 16.8936 82.3043 16.0055 81.7782 15.4404C81.2521 14.8752 80.4527 14.5927 79.3801 14.5927C78.2875 14.5927 77.4677 14.8853 76.9217 15.4706C76.3956 16.056 76.1326 16.9339 76.1326 18.1046V18.256ZM98.4549 27.2477C98.2322 27.2477 98.1214 27.1367 98.1214 26.9147V17.4083C98.1214 16.4798 97.9288 15.8037 97.5447 15.3798C97.1806 14.9358 96.6033 14.7137 95.8142 14.7137C95.0654 14.7137 94.3268 14.9358 93.5984 15.3798C92.8701 15.8037 91.9997 16.5202 90.9884 17.5294L90.9276 15.0771C91.5747 14.3908 92.2025 13.8257 92.8093 13.3816C93.4166 12.9376 94.0336 12.6046 94.6608 12.3826C95.3085 12.1606 95.9863 12.0496 96.6948 12.0496C98.1515 12.0496 99.2543 12.4734 100.003 13.3211C100.772 14.1486 101.156 15.4 101.156 17.0753V26.9147C101.156 27.1367 101.055 27.2477 100.853 27.2477H98.4549ZM88.8328 27.2477C88.6101 27.2477 88.4993 27.1367 88.4993 26.9147V16.167C88.4993 15.6019 88.4687 15.0064 88.4079 14.3807C88.3675 13.7349 88.3272 13.2202 88.2869 12.8367C88.2459 12.5541 88.3573 12.4128 88.6203 12.4128H90.7759C90.8969 12.4128 90.9776 12.4331 91.0185 12.4734C91.0793 12.5138 91.1196 12.5945 91.1401 12.7156C91.1804 12.8973 91.2207 13.1495 91.2611 13.4725C91.3014 13.7954 91.3423 14.1385 91.3827 14.5018C91.423 14.8652 91.4435 15.178 91.4435 15.4404L91.5344 16.4092V26.9147C91.5344 27.1367 91.423 27.2477 91.2009 27.2477H88.8328ZM110.246 27.611C109.133 27.611 108.253 27.4394 107.605 27.0964C106.958 26.733 106.482 26.1881 106.179 25.4615C105.895 24.7147 105.754 23.7862 105.754 22.6762V14.9863H103.447C103.244 14.9863 103.143 14.8752 103.143 14.6532V12.7459C103.143 12.5239 103.244 12.4128 103.447 12.4128H105.845L106.209 8.77982C106.229 8.57796 106.351 8.47709 106.573 8.47709H108.425C108.647 8.47709 108.759 8.57796 108.759 8.77982L108.789 12.4128H113.129C113.352 12.4128 113.464 12.5239 113.464 12.7459V14.6532C113.464 14.8752 113.352 14.9863 113.129 14.9863H108.789V22.5551C108.789 23.4431 108.941 24.0789 109.244 24.4624C109.568 24.8257 110.115 25.0074 110.884 25.0074C111.268 25.0074 111.652 24.967 112.037 24.8863C112.441 24.7853 112.796 24.6642 113.099 24.5229C113.221 24.4826 113.312 24.4927 113.373 24.5532C113.454 24.5936 113.494 24.6642 113.494 24.7652V26.733C113.494 26.9147 113.413 27.0358 113.251 27.0964C112.866 27.2376 112.422 27.3587 111.915 27.4596C111.43 27.5606 110.873 27.611 110.246 27.611Z" fill="#198A84"/>
<path d="M122.135 27.611C121.386 27.611 120.577 27.5 119.706 27.278C118.856 27.056 118.078 26.7431 117.37 26.3395L117.309 24.9165C118.037 25.3 118.786 25.6028 119.555 25.8248C120.344 26.0468 121.113 26.1578 121.862 26.1578C123.197 26.1578 124.219 25.7743 124.928 25.0074C125.636 24.2404 125.99 23.1606 125.99 21.7679V17.6202C125.99 16.2679 125.737 15.2789 125.231 14.6532C124.725 14.0073 123.956 13.6844 122.924 13.6844C122.094 13.6844 121.234 13.9367 120.344 14.4413C119.454 14.9459 118.431 15.7835 117.278 16.9541V15.3496C117.987 14.6229 118.664 14.0376 119.312 13.5936C119.98 13.1293 120.638 12.7963 121.285 12.5945C121.932 12.3725 122.601 12.2615 123.289 12.2615C124.725 12.2615 125.797 12.6954 126.506 13.5633C127.234 14.411 127.598 15.7331 127.598 17.5294V21.9193C127.598 23.7156 127.123 25.1183 126.172 26.1275C125.221 27.1165 123.875 27.611 122.135 27.611ZM116.246 32.8486C116.104 32.8486 116.034 32.7781 116.034 32.6367V15.9854C116.034 15.5211 116.013 15.0064 115.973 14.4413C115.953 13.8761 115.912 13.3413 115.852 12.8367C115.852 12.6954 115.923 12.6248 116.064 12.6248H117.187C117.329 12.6248 117.41 12.6854 117.43 12.8064C117.47 13.0688 117.501 13.3615 117.521 13.6844C117.562 13.9872 117.582 14.2899 117.582 14.5927C117.602 14.8752 117.612 15.1275 117.612 15.3496L117.642 16.2275V32.6367C117.642 32.7781 117.582 32.8486 117.461 32.8486H116.246ZM136.831 27.611C134.929 27.611 133.462 27.1367 132.43 26.1881C131.398 25.2193 130.882 23.8064 130.882 21.9496V17.9229C130.882 16.0661 131.398 14.6633 132.43 13.7147C133.462 12.7459 134.929 12.2615 136.831 12.2615C138.753 12.2615 140.231 12.7459 141.263 13.7147C142.295 14.6633 142.81 16.0661 142.81 17.9229V21.9496C142.81 23.7862 142.295 25.189 141.263 26.1578C140.231 27.1266 138.753 27.611 136.831 27.611ZM136.831 26.1578C138.288 26.1578 139.381 25.7844 140.11 25.0376C140.838 24.2908 141.202 23.2009 141.202 21.7679V18.1046C141.202 16.6716 140.838 15.5817 140.11 14.8349C139.381 14.0679 138.288 13.6844 136.831 13.6844C135.394 13.6844 134.312 14.0679 133.583 14.8349C132.855 15.5817 132.49 16.6716 132.49 18.1046V21.7679C132.49 23.2009 132.855 24.2908 133.583 25.0376C134.312 25.7844 135.394 26.1578 136.831 26.1578ZM151.865 27.611C149.963 27.611 148.516 27.1569 147.524 26.2486C146.533 25.3404 146.037 24.0083 146.037 22.2523V17.9835C146.037 16.1065 146.523 14.6835 147.494 13.7147C148.465 12.7459 149.892 12.2615 151.774 12.2615C153.676 12.2615 155.103 12.7459 156.054 13.7147C157.025 14.6633 157.511 16.0661 157.511 17.9229V19.9514C157.511 20.0725 157.45 20.133 157.329 20.133H147.646V21.8285C147.646 23.3019 147.99 24.3918 148.678 25.0982C149.386 25.8046 150.468 26.1578 151.926 26.1578C153.12 26.1578 154.03 25.9358 154.657 25.4917C155.285 25.0275 155.599 24.3817 155.599 23.5541C155.599 23.4129 155.679 23.3422 155.841 23.3422H157.025C157.146 23.3422 157.217 23.4027 157.238 23.5238C157.278 24.7954 156.823 25.7945 155.872 26.5211C154.941 27.2477 153.606 27.611 151.865 27.611ZM147.646 18.7404H155.902V18.0743C155.902 16.6009 155.558 15.5009 154.87 14.7743C154.182 14.0477 153.16 13.6844 151.804 13.6844C150.408 13.6844 149.366 14.0578 148.678 14.8046C147.99 15.5312 147.646 16.6211 147.646 18.0743V18.7404ZM161.357 27.2477C161.216 27.2477 161.145 27.1771 161.145 27.0358V6.78165C161.145 6.64039 161.216 6.56973 161.357 6.56973H162.572C162.693 6.56973 162.753 6.64039 162.753 6.78165V27.0358C162.753 27.1771 162.693 27.2477 162.572 27.2477H161.357Z" fill="#198A84"/>
<path d="M32.7821 16.3486C32.7821 7.31953 25.4436 0 16.391 0C7.33852 0 0 7.31953 0 16.3486C0 18.1427 0.290637 19.8689 0.826005 21.4839C4.25636 16.7409 9.79454 13.6603 16.0443 13.6603C22.5801 13.6603 28.3383 17.029 31.7206 22.1453C32.4058 20.3435 32.7821 18.3901 32.7821 16.3486ZM2.21378 24.5575C2.74979 25.4764 3.37304 26.3383 4.07218 27.1321C4.71765 25.7226 5.60656 24.4245 6.71209 23.3047C9.1872 20.7978 12.5441 19.3893 16.0443 19.3893C19.5445 19.3893 22.9014 20.7978 25.3764 23.3047C26.615 24.5592 27.5819 26.0375 28.2389 27.6457C28.9709 26.8823 29.6296 26.0483 30.2034 25.1548C29.4632 23.7403 28.5142 22.432 27.3761 21.2792C24.3708 18.235 20.2946 16.5249 16.0443 16.5249C11.794 16.5249 7.71781 18.235 4.71246 21.2792C3.73634 22.2679 2.89933 23.371 2.21378 24.5575ZM6.28127 29.2178C7.05172 29.8208 7.8782 30.3555 8.7507 30.8147C9.08749 29.5173 9.75892 28.3208 10.7116 27.3558C12.1259 25.9232 14.0441 25.1184 16.0443 25.1184C18.0444 25.1184 19.9626 25.9232 21.377 27.3558C22.405 28.3972 23.1055 29.7084 23.4115 31.1251C24.3031 30.703 25.1503 30.2028 25.9446 29.6338C25.4496 28.0244 24.575 26.5441 23.3766 25.3302C21.432 23.3605 18.7944 22.2539 16.0443 22.2539C13.2941 22.2539 10.6566 23.3605 8.71189 25.3302C7.61748 26.4388 6.79305 27.7695 6.28127 29.2178ZM11.403 31.9253C12.9757 32.4263 14.6516 32.6973 16.391 32.6973C17.8881 32.6973 19.3377 32.4959 20.7157 32.1208C20.5788 31.0896 20.1118 30.1254 19.3772 29.3813C18.4932 28.4859 17.2943 27.983 16.0443 27.983C14.7942 27.983 13.5953 28.4859 12.7113 29.3813C12.0234 30.0781 11.5702 30.9679 11.403 31.9253Z" fill="#198A84"/>
</g>
<defs>
<clipPath id="clip0_1727_674">
<rect width="163" height="33" fill="white"/>
</clipPath>
</defs>
</svg>
